<?xml version="1.0" encoding="utf-8"?>
<!-- Generator: Adobe Illustrator 21.0.0, SVG Export Plug-In . SVG Version: 6.00 Build 0)  -->
<svg version="1.1" id="Capa_1" xmlns="http://www.w3.org/2000/svg" xmlns:xlink="http://www.w3.org/1999/xlink" x="0px" y="0px"
	 viewBox="0 0 2968.1 539" style="enable-background:new 0 0 2968.1 539;" xml:space="preserve">
<style type="text/css">
	.st0{fill:#AAAAAA;}
	.st1{fill:#999999;}
	.st2{fill:#E0E0E0;}
	.st3{fill:#C4C4C4;}
	.st4{fill:#464649;}
	.st5{fill:#006635;}
	.st6{fill:#45BF7F;}
	.st7{fill:#00B76C;}
	.st8{fill:#404040;}
</style>
<g>
	<path class="st0" d="M412.1,260.2c-0.4-2.9-2.5-5.3-5.4-6.1C333.9,233.6,301,133.1,300.7,132c-0.9-2.8-3.3-4.8-6.2-5.2
		c-2.9-0.4-5.8,1-7.3,3.5c-33.1,54.2-28.2,116.3-28,118.9v0c0.2,2,1.1,3.9,2.7,5.2c21.4,17.5,45,28.4,68.4,31.7
		c5.2,0.7,10.3,1.1,15.5,1.1c21.8,0,42.9-6.6,63.1-19.7C411.2,266,412.5,263.1,412.1,260.2z"/>
	<path class="st1" d="M345.7,287.4c21.8,0,42.9-6.6,63.1-19.7c2.5-1.6,3.8-4.5,3.3-7.4s-2.5-5.3-5.4-6.1c-7.4-2.1-14.5-5.1-21.1-8.6
		c-35.5,16.3-67.6,7.5-89.2-3.8c-12.8-6.6-25.1-15.8-36.4-26.8c-2,19.6-0.9,33.2-0.8,34.4v0c0.2,2,1.1,3.9,2.7,5.2
		c21.4,17.5,45,28.4,68.4,31.7C335.4,287,340.6,287.4,345.7,287.4z"/>
	<path class="st2" d="M551.7,288.1c-0.8-2.6-3-4.6-5.7-5.1l-35.7-7c-5.1-8-20.4-28.5-46-35c-20.1-5.1-41.6-0.4-63.8,14.1
		c-41.4,27-79.5,17.3-104.2,4.5c-23.1-12.1-45-32.3-61.5-57c-15.5-23.2-24.7-48.1-25.4-68.5c-0.1-3.3-2.4-6.2-5.7-7
		c-3.2-0.8-6.6,0.6-8.3,3.5c-1,1.7-24.3,42.4-28.7,96.9c-2.6,32.2,2.1,62.5,13.8,90c12.6,29.4,33.3,55.5,61.6,77.9
		c-23.8,2.7-67.7,5.1-106.9-7.3c-2.2-0.7-4.6-0.3-6.5,1c-1.9,1.3-3.1,3.5-3.2,5.8c-0.2,3-3.3,74.7,46.7,130.8
		c1.4,1.6,3.5,2.5,5.6,2.5c0,0,0.1,0,0.1,0c2.2,0,4.2-1,5.6-2.7c0.6-0.8,65-77.7,123.8-74.2c56.1,3.4,135.1,0,173.9-67.3
		c23.5-40.8,68.1-87.8,68.6-88.3C551.9,293.6,552.6,290.8,551.7,288.1z"/>
	<g>
		<path class="st3" d="M551.7,288.1c-0.8-2.6-3-4.6-5.7-5.1l-32.8-6.4C499.4,292,470,326,452.4,356.5
			c-38.8,67.3-117.8,70.7-173.9,67.3c-58.8-3.5-123.2,73.5-123.8,74.2c-0.4,0.5-1,1-1.5,1.4c5.3,8.9,11.7,17.7,19.2,26.2
			c1.4,1.6,3.5,2.5,5.6,2.5c0,0,0.1,0,0.1,0c2.2,0,4.2-1,5.6-2.7c0.6-0.8,65-77.7,123.8-74.2c56.1,3.4,135.1,0,173.9-67.3
			c23.5-40.8,68.1-87.8,68.6-88.3C551.9,293.6,552.6,290.8,551.7,288.1z"/>
		<path class="st3" d="M483.1,249c-0.8-0.5-1.7-1-2.6-1.5c0.3,0.4,0.5,0.8,0.8,1.2L483.1,249z"/>
		<path class="st3" d="M213.1,368.1c0,0,0.1,0,0.1,0c-0.2-0.1-0.3-0.3-0.5-0.4C212.9,367.8,213,367.9,213.1,368.1z"/>
	</g>
	<path class="st4" d="M447.7,309.6c-7.8,0-14.2-6.4-14.2-14.2c0-7.8,6.4-14.2,14.2-14.2c7.8,0,14.2,6.4,14.2,14.2
		C461.9,303.3,455.6,309.6,447.7,309.6z"/>
	<g>
		<path class="st5" d="M525.4,370.7c-1.1,0-2.1-0.2-3.2-0.7c-3.8-1.7-5.4-6.2-3.6-10c13.6-29.1,20-60.5,19.1-93.3
			c-0.7-26.4-6.1-53.8-16-81.4c-17-47.4-41.8-79.4-42.1-79.7c-2.6-3.3-2-8,1.3-10.5c3.3-2.6,8-2,10.5,1.3
			c1.1,1.4,26.4,33.9,44.2,83.4c10.5,29.2,16.3,58.2,17,86.2c1,35.2-5.9,69-20.5,100.3C530.9,369.1,528.2,370.7,525.4,370.7z"/>
		<path class="st6" d="M546.5,218.2c-0.6-1.3-13.9-31.1-40.9-40.4c-27-9.3-55.9,5.9-57.1,6.6c-3.5,1.9-4.9,6-3.3,9.6
			c0.6,1.3,13.9,31.1,40.9,40.4c6.3,2.2,12.7,3,18.8,3c20.2,0,37.4-9.1,38.3-9.6C546.6,225.9,548,221.7,546.5,218.2z"/>
		<path class="st7" d="M504.8,237.4c20.2,0,37.4-9.1,38.3-9.6c1.7-0.9,3-2.4,3.5-4.2l-101.9-35.1c-0.6,1.7-0.6,3.7,0.2,5.5
			c0.6,1.3,13.9,31.1,40.9,40.4C492.3,236.5,498.7,237.4,504.8,237.4z"/>
		<path class="st6" d="M573.6,78.9c-1.2-3.7-5-5.9-8.8-5.1c-1.3,0.3-33.2,7.8-47.4,32.6l0,0c-14.2,24.8-4.7,56-4.3,57.4
			c1,3.2,3.9,5.3,7.2,5.3c0.6,0,1.1-0.1,1.7-0.2c1.3-0.3,33.2-7.8,47.4-32.6C583.6,111.5,574.1,80.2,573.6,78.9z"/>
		<path class="st7" d="M570.2,74.6L516.6,168c1.1,0.6,2.4,1,3.7,1c0.6,0,1.1-0.1,1.7-0.2c1.3-0.3,33.2-7.8,47.4-32.6
			c14.2-24.8,4.7-56,4.3-57.4C573.1,77,571.8,75.5,570.2,74.6z"/>
		<path class="st6" d="M485,45.9c-15.7-23.8-47.9-29.4-49.3-29.6c-3.9-0.6-7.6,1.8-8.5,5.6c-0.3,1.3-7.9,33.1,7.8,57
			s47.9,29.4,49.3,29.6c0.4,0.1,0.8,0.1,1.2,0.1c3.4,0,6.4-2.3,7.3-5.7C493.2,101.5,500.7,69.7,485,45.9z"/>
		<path class="st7" d="M484.3,108.5c0.4,0.1,0.8,0.1,1.2,0.1c1.5,0,2.9-0.5,4.1-1.3l-59.3-89.9c-1.5,1-2.7,2.6-3.2,4.5
			c-0.3,1.3-7.9,33.1,7.8,57C450.7,102.7,483,108.2,484.3,108.5z"/>
		<path class="st6" d="M616.6,201.3c-1.4-0.2-33.9-3.7-55.6,14.9c-21.7,18.6-23.2,51.2-23.2,52.6c-0.1,3.9,2.7,7.3,6.6,7.7
			c0.4,0,3.3,0.4,7.8,0.4c11.2,0,32.2-2,47.7-15.3c21.7-18.6,23.2-51.2,23.2-52.6C623.4,205.1,620.5,201.8,616.6,201.3z"/>
		<path class="st7" d="M623.2,209c0.1-2-0.6-3.8-1.8-5.2L539.6,274c1.2,1.4,2.9,2.3,4.8,2.6c0.4,0,3.3,0.4,7.8,0.4
			c11.2,0,32.2-2,47.7-15.3C621.7,243.1,623.2,210.4,623.2,209z"/>
	</g>
</g>
<g>
	<path class="st8" d="M742.2,418.6V134.3h84c25.1,0,47.4,5.6,66.9,16.8c19.5,11.2,34.5,27.1,45.2,47.7c10.7,20.6,16,44.1,16,70.7
		v14.3c0,27-5.4,50.7-16.1,71.1c-10.7,20.4-26,36.2-45.9,47.3c-19.9,11.1-42.6,16.6-68.3,16.6H742.2z M791.6,174.1v205.1h32.2
		c25.9,0,45.8-8.1,59.7-24.3s20.9-39.5,21.2-69.8v-15.8c0-30.9-6.7-54.4-20.1-70.7c-13.4-16.3-32.9-24.4-58.4-24.4H791.6z"/>
	<path class="st8" d="M1201.7,291.7h-116.8v87.5h136.5v39.5h-185.9V134.3h184.6v39.8h-135.2v78.5h116.8V291.7z"/>
	<path class="st8" d="M1391.5,237l59.8-102.7h57l-85.9,141l87.9,143.4h-57.6l-61.1-104.3l-61.3,104.3h-57.4l88.1-143.4l-86.1-141h57
		L1391.5,237z"/>
	<path class="st8" d="M1784.3,174.1h-88.7v244.5h-49V174.1h-87.9v-39.8h225.6V174.1z"/>
	<path class="st8" d="M2019.8,291.7H1903v87.5h136.5v39.5h-185.9V134.3h184.6v39.8H1903v78.5h116.8V291.7z"/>
	<path class="st8" d="M2216.2,309.3h-55.1v109.4h-49.4V134.3h100c32.8,0,58.1,7.4,76,22.1c17.8,14.7,26.8,36,26.8,63.9
		c0,19-4.6,35-13.8,47.8c-9.2,12.8-22,22.7-38.4,29.6l63.9,118.4v2.5h-52.9L2216.2,309.3z M2161.1,269.4h50.8
		c16.7,0,29.7-4.2,39.1-12.6s14.1-19.9,14.1-34.5c0-15.2-4.3-27-13-35.4c-8.7-8.3-21.6-12.6-38.8-12.9h-52.1V269.4z"/>
	<path class="st8" d="M2552.5,352.4h-110.2l-23,66.2h-51.4l107.4-284.4h44.3l107.6,284.4h-51.6L2552.5,352.4z M2456.2,312.6h82.4
		l-41.2-118L2456.2,312.6z"/>
</g>
</svg>
