<svg id="Layer_1" data-name="Layer 1" xmlns="http://www.w3.org/2000/svg" xmlns:xlink="http://www.w3.org/1999/xlink" viewBox="0 0 1227.36 276"><defs><style>.cls-1{fill:none;}.cls-2{clip-path:url(#clip-path);}.cls-3{fill:#fffefe;}.cls-4{fill:#ffb5be;}.cls-5{fill:#ff4235;}.cls-6{fill:#ff4335;}.cls-7{fill:#ff2863;}.cls-8{fill:#f53;}.cls-9{fill:#ff3858;}.cls-10{fill:#ff3460;}.cls-11{fill:#ff3e3d;}.cls-12{fill:#ff4b21;}.cls-13{fill:#ff3156;}.cls-14{fill:#ff3e5f;}.cls-15{fill:#ff394a;}.cls-16{fill:#ff482b;}.cls-17{fill:#ff463d;}.cls-18{fill:#ff3068;}</style><clipPath id="clip-path" transform="translate(-23.44 -34.32)"><rect class="cls-1" x="23" y="34" width="1226.88" height="275.28"/></clipPath></defs><title>finwerd-logo-text</title><g class="cls-2"><path class="cls-3" d="M155.92,310.32H23.44q0-55.2,0-110.4c.53.24.68,1,1.42,1l.22.95c0,1-.37,2.17.82,2.86l.11,1a2.69,2.69,0,0,0,.88,2.86l.12,1c.09,1.61,1.14,2.86,1.69,4.29a48.32,48.32,0,0,0,5.61,10.53,60,60,0,0,0,5.22,6.53,78.74,78.74,0,0,0,14.64,11.76c1.34,1.62,3.27,2.44,4.91,3.66,4.07,3,8.12,6.08,12.24,9,3.3,2.37,6.66,4.64,9.84,7.17.72.57,1.47,1.51,2.66,1.32a.87.87,0,0,0,1.07.91h0c.39,1.12,1.51,1.56,2.32,2.18,3,2.29,6.08,4.47,9.16,6.63,3.87,2.73,7.53,5.77,11.57,8.25,1.55.94,2.82,2.22,4.3,3.26,2.57,1.81,5.21,3.55,7.67,5.53s4.94,3.44,7.43,5.12c.08.05.28-.07.45-.11a4.46,4.46,0,0,0,.21-2.32q0-28,0-55.9c0-.8-.07-1.59-.11-2.39,0-.55.1-1.11.1-1.66q0-21.14,0-42.28c0-.55-.07-1.11-.11-1.66s.1-1.11.1-1.66q0-20.66,0-41.31c0-.55-.07-1.11-.11-1.66,0-2.55.14-5.1.14-7.65a29,29,0,0,1,1.26-7.5,66.91,66.91,0,0,1,2.5-6.79c2.06-5.24,5.52-9.46,9.33-13.37a40.11,40.11,0,0,1,9.16-6.62,36.68,36.68,0,0,1,9.33-3.56c3.83-.94,7.65-1.91,11.69-1.59,2.53.21,5.1,0,7.65,0,.87,0,1.75.08,2.62.08h42.28c1.67,0,3.34,0,5-.07.88,0,1.76.08,2.63.08H260.3c.56,0,1.12,0,1.68,0s.89.24,1.18.86a79.82,79.82,0,0,1,2.7,8.31c.59,1.82.45,1.9,2.33,1.91,4.56,0,9.12,0,13.67,0a1.53,1.53,0,0,0,1.21-.39c.06-1.71-.78-3.33-1.33-4.91-.92-2.65-1.63-5.36-2.72-8a101.36,101.36,0,0,1-3.87-12.15c-.33-1.17-.76-1.52-1.88-1.52q-14.51.08-29,.09c-.87,0-1.75-.07-2.62-.07h-44.2c-1,0-2.07,0-3.1.08a7.91,7.91,0,0,0-1-.07c-10.17.43-20.37-.86-30.54.82-2.18.36-4.34.85-6.46,1.35a21.08,21.08,0,0,0-3.82,1c-2.06.93-4.1,1.89-6.15,2.84a32.72,32.72,0,0,0-7,3.94c-3.21,2.61-6.68,4.87-9.62,7.9a68.92,68.92,0,0,0-6.71,8.05,57.79,57.79,0,0,0-8.19,16.72,54.25,54.25,0,0,0-2.43,12.1c-.55,8.44-.3,16.93-.13,25.39,0,5.64-.1,11.28-.1,16.92,0,5.24.06,10.48.1,15.73-.19,7.2-.17,14.4,0,21.6,0,.88-.1,1.75-.1,2.63q0,21.34,0,42.67c0,.72,0,1.44,0,2.16-.1,1.07-.34,1.14-1.29.45-3.47-2.53-6.91-5.1-10.43-7.57-1.45-1-2.73-2.32-4.44-3h0c0-.7-.38-.95-1-.89a1.57,1.57,0,0,0-1.82-1c-.06-.64-.38-1-1.06-.9h0c-.14-.47-.27-1-.94-.85-1.9-1.23-3.49-2.85-5.34-4.17-4.74-3.35-9.55-6.59-14.09-10.23-.39-.31-.75-.89-1.43-.68-.24-.54-.4-1.18-1.23-.87a4.84,4.84,0,0,0-2-1.45c-.89-1.31-2.32-2-3.52-2.9-3-2.36-6.41-4.29-9.14-7-1.71-1.72-3.73-3.16-5.09-5.21-1.2-1.82-2.4-3.63-3.54-5.5A34.4,34.4,0,0,1,41,198.78a4.53,4.53,0,0,0-.87-2.19,29,29,0,0,0-.12-4.82,4.16,4.16,0,0,0,0-1.94,23.37,23.37,0,0,0,.11-4.34,5,5,0,0,0,.84-3.82,4.82,4.82,0,0,0,.21-1.91c1.06-.32.82-1.16.77-1.93l.13-1a16.07,16.07,0,0,0,1.8-5.26l.14-1c.83-.4.9-1.12.78-1.91l.13-1a1.5,1.5,0,0,0,1-1.88q2-6.52,4.1-13A21.36,21.36,0,0,1,51.37,149,20.27,20.27,0,0,0,53,143.76l.14-1a1.76,1.76,0,0,0,.82-1.91,2.43,2.43,0,0,0,.18-1.44,1.58,1.58,0,0,0,.8-1.92l.14-1a1.6,1.6,0,0,0,.81-1.91l.1-1c.5-.54,1-1.06.82-1.9l.13-1a1.49,1.49,0,0,0,1-1.89c0-1.06.77-1.88,1-2.87.78-2.78,1.74-5.51,2.55-8.28.52-1.78,1.59-3.48,1.35-5.46,1.33-.44,1.37-1.48,1.22-2.61l.15-.95c1.06-.31.85-1.16.8-1.93l.14-1c.29-.12.63-.18.7-.55.22-1.23.74-2.42,1-3.59.26-1.38,1.47-2.51,1-4l.13-1c.93-.36.93-1.11.82-1.92l.13-1c1.27-.4,1-1.43,1-2.38l.09-.79a1.81,1.81,0,0,0,.86-2.09l.09-.83c1.27-.64.74-2,1.16-3,1.47-3.46,2.28-7.17,4.06-10.52a38,38,0,0,1,5.15-8c2.51-2.74,4.94-5.67,8.33-7.54,1.06-.59,2.12-1.28,3.13-2a33.14,33.14,0,0,1,12.08-4.75c2.56-.55,5.19-.81,7.79-1.19.63.06,1.26.16,1.89.16h41.8c.63,0,1.26-.11,1.89-.17a7.61,7.61,0,0,0,1.17.18q16.59,0,33.19,0a7.28,7.28,0,0,0,1.17-.19,4.25,4.25,0,0,0,1.88.21l25,.07a1.79,1.79,0,0,0,1.14-.23,5.36,5.36,0,0,0,4.17.92,1.8,1.8,0,0,0,1.52.19,2.13,2.13,0,0,0,2.33.81.42.42,0,0,0,.62,0c.39.71,1.12.83,1.79,1.08a24.64,24.64,0,0,1,4.11,1.86c4.45,2.61,8.82,5.32,12.09,9.44a3.52,3.52,0,0,0,2.9,1.37c5.11,0,10.22,0,15.33,0,1.5,0,1.94-.93,1.09-2.16-1.9-2.76-3.67-5.61-5.78-8.2a45.87,45.87,0,0,0-6.73-7c-2.22-1.78-4.47-3.55-6.83-5.13-1.76-1.17-3.49-2.52-5.67-2.89a.46.46,0,0,0-.66-.12,1.26,1.26,0,0,0-1.26-.82.51.51,0,0,0-.69-.12A2.12,2.12,0,0,0,238,39a1.12,1.12,0,0,0-1-.22c0-.94-.61-1.09-1.38-1-1.5-.4-3-.8-4.46-1.29-2.65-.92-5.4-.9-8.07-1.47a32.64,32.64,0,0,0-8.58-.15q-14.56,0-29.11-.07c-3.9,0-7.79,0-11.69.08-7.24,0-14.48-.07-21.72-.07-8.12,0-16.23,0-24.35.07-9.4.08-18.86-.93-28.12,1.74-2,.58-3.94,1.25-5.89,2a53.21,53.21,0,0,0-12.36,6.35c-2.33,1.66-4.86,3.16-6.83,5.19a75.06,75.06,0,0,0-8.25,9.62,3.67,3.67,0,0,0-2,3.28l-.13.48c-.48,0-1,.08-1.21.58-1,1.87-1.93,3.72-2.83,5.61-.15.32,0,.77,0,1.17l-.14.88c-.31.05-.67.06-.78.43a31.79,31.79,0,0,1-2.22,6.15.82.82,0,0,0,.1,1.08l-.15,1.37a1.32,1.32,0,0,0-.84,2l-.11.9a1.32,1.32,0,0,0-.84,2l-.09.91c-.88.4-1.35,1-.84,2l-.12.91c-1.07.53-1.52,1.29-.9,2.45l-.08.91c-.91.39-1.31,1-.84,2l-.11.91c-1.47.08-1.34,1.06-1.18,2.07l-.07.88A8.88,8.88,0,0,0,49,104l-.08.89c-1.24.27-.94,1.18-.85,2l-.1.87c-1.23.27-.94,1.19-.85,2l.1.88-.21.47c-1.25.27-1,1.18-.84,2L46,114c-1.27.95-2.12,3.35-2,5.72l-.12.91a1.28,1.28,0,0,0-.8,2l-.11.92a1,1,0,0,0-.86.71c-.43,1.25-.86,2.51-1.26,3.77a.82.82,0,0,0,.3.84l-.11.92c-.93.38-1.3,1-.84,2l-.11.91c-1.83.15-1.22,1.48-1.21,2.51s-1.18,1.72-.79,2.85l-.12,1c-1.35,1.3-1.13,3.22-1.77,4.81-.46,1.16-1.38,2.37-1,3.81l-.13,1a11.23,11.23,0,0,0-2,5.26l-.07.85a1.76,1.76,0,0,0-.86,2,1,1,0,0,0-.09.86c-1,.57-.85,1.57-.89,2.5l-.09.81c-1.36.85-.93,2.42-1.37,3.63-.61,1.66-1.57,3.24-1.48,5.11A2.55,2.55,0,0,0,27,172.09a2.84,2.84,0,0,0-.2,1.49,1,1,0,0,0-.7,1.38,3.53,3.53,0,0,0-.2,1.95,3.14,3.14,0,0,0-.82,2.85l-.22,1c-.73-.05-.9.73-1.43,1V34.32H1250.8v276H170.8l-.16-.62c0-1,.12-2.07.12-3.11q0-39.89,0-79.78c0-1,0-1.92.05-2.87,1,0,1.91-.08,2.86-.08h22.2c1.19,0,2.42.12,3.24-1l2.67-.12c1.32.28,2.68.76,3.57-.83l1.24-.11c1,.17,2.17.8,2.6-.84l.77-.11c.92.23,1.87.52,2.11-.88l.74-.14c.69.34,1.11.17,1.19-.63l.78-.22c1.13.41,1.58-.13,1.64-1.19a40.92,40.92,0,0,0,10.68-7.34,48.22,48.22,0,0,0,5.54-6,47.26,47.26,0,0,0,6.08-10.79,39.74,39.74,0,0,0,3-12.16c.41-5.5.23-11,.1-16.53,0-.69,0-1.32-.91-1.37-.64,0-1.28,0-1.91,0H173.66c-2.41,0-2.42,0-2.43-2.34,0-3.91,0-7.82,0-11.73,0-.77.25-1.61-.38-2.29l-.06-1.45.14.07c.69-.11,1.38-.21,1.1-1.2l.07-.75a2.63,2.63,0,0,0,2.08-1.95c.76-.11,1-1.12,1.92-1h98.08l1.92,0a.82.82,0,0,1,.88.63c.67,2.16,1.78,4.19,2,6.5-.24,1.06-.23,2,1.17,2.12l.13.89c-.56,1-.09,1.59.81,2l.13-.07,0,1c-.49,1-.06,1.6.85,2l.14-.07,0,1a1.78,1.78,0,0,0,.88,2.47l.14-.07,0,1c-.54,1,0,1.58.84,2l.06.51c-.4,1-.33,1.92.86,2.38l.26.87v1c-.79,1.18,0,1.59.94,1.88h.15a2.19,2.19,0,0,0,.8,2l.13,1c-.1.79-.15,1.57.81,1.91l.14,1c0,.88-.32,1.9.85,2.38l.13,1c-.06.77-.27,1.6.78,1.92a4.44,4.44,0,0,0,.2,1.91,4.89,4.89,0,0,0,.83,3.82,22.29,22.29,0,0,0,.11,4.34,4.18,4.18,0,0,0,0,1.94,27.8,27.8,0,0,0-.12,4.82,4.06,4.06,0,0,0-.82,3.34l-.17,1.93c-1,.35-.86,1.14-.79,1.91l-.13,1a1.17,1.17,0,0,0-.84,1,12.55,12.55,0,0,1-.93,2.84c-.47,1.57-1.91,2.61-2.09,4.27-.37.51-.77,1-1.09,1.53a37.07,37.07,0,0,1-9.4,10.11c-3.16,2.46-6.46,4.81-9.81,7-3.66,2.44-7,5.25-10.68,7.7-4.53,3-8.79,6.47-13.18,9.71-2.1,1.56-4.21,3.11-6.35,4.61-1,.72-1.93,1.59-3,2.27-4.94,3.13-9.5,6.81-14.25,10.2-4.3,3.07-8.57,6.24-12.77,9.48-4.46,3.44-9.29,6.4-13.63,10a8.38,8.38,0,0,1-2.17,1.34c-1.2.49-2.36,1.27-2.35,2.89,0,4.8,0,9.6,0,14.39,0,1.26.41,1.42,1.68,1.07,3-.83,5.49-2.64,8.13-4.18a104.13,104.13,0,0,0,9.7-6.81c1.59-1.18,3.39-2.1,4.86-3.41,2.43-2.17,5.28-3.73,7.8-5.76,2.75-2.21,5.91-3.91,8.62-6.16,3.14-2.61,6.67-4.65,9.81-7.25,2.54-2.11,5.39-3.85,8-5.86,4.59-3.49,9.34-6.78,14.1-10,1-.7,1.85-1.6,2.91-2.29a63.21,63.21,0,0,0,6.8-4.78c3.29-2.83,7-5.06,10.38-7.77,2.88-2.3,6.05-4.26,8.8-6.77a53.33,53.33,0,0,0,14.07-20,5.12,5.12,0,0,0,.76-2.65c.74-.49,1.46-1,1.2-2.06l.13-1c1-.73,1-1.78.87-2.86l.11-1c1.21-.69.83-1.83.82-2.87a5.32,5.32,0,0,0,.15-2.41,2.17,2.17,0,0,0,.8-1.83,21.06,21.06,0,0,0,0-3.92,20.11,20.11,0,0,0,0-4.79c0-2.42.54-4.91-.85-7.17a3.9,3.9,0,0,0-.13-1.94,3.15,3.15,0,0,0-.84-2.85l-.08-1a19.27,19.27,0,0,0-1.55-5.63c-.1-.26-.44-.43-.67-.64h0c0-1.09.1-2.19-1-2.92a.46.46,0,0,0,0-.43c0-1,0-1.91-.9-2.52l-.09-.84a1.82,1.82,0,0,0-.87-2.07l-.09-.82c-.05-.92.18-1.94-.89-2.49l-.09-.87c.09-.83,0-1.61-.86-2l-.09-.85c.05-.82.14-1.65-.94-1.91l-.14-1c0-1.81-1-3.37-1.39-5.07,0-.1-.27-.14-.41-.2l-.14-1c.27-1.49-1-2.51-1.17-3.85,0-.23.19-.5.12-.69-1.26-3.54-2.54-7.08-3.81-10.62-.32-.89-.34-1.85-.75-2.75-1-2.17-.92-2.22-3.16-2.22H260.53a4.94,4.94,0,0,0-2.35.26c-1.75-.08-3.5-.22-5.25-.22q-20.69,0-41.39,0a5.16,5.16,0,0,0-2.36.23,3.4,3.4,0,0,0-1.64-.22c-9.87,0-19.74,0-29.61,0a15.69,15.69,0,0,0-4.73.33,3,3,0,0,0-3.17.88l-.67.08a.94.94,0,0,0-1.37.69,1.25,1.25,0,0,0-1,.33c-.83-.34-.93.39-1.24.83a.57.57,0,0,0-.73.16c-.66,0-.76.46-.9.92a5.35,5.35,0,0,0-3,2.76c-1.44.8-2.84,1.62-3.07,3.48l-.18.63c-1.17.75-1.43,2-1.74,3.21l-.13,1c-1,.72-.93,1.78-.83,2.84-.08,1.18-.22,2.37-.23,3.55q0,9.88,0,19.77a30.68,30.68,0,0,0,.12,5,20,20,0,0,0-.12,4.48c0,1.39-.39,2.83.34,4.16,0,.32,0,.69.43.72.71.05,1.43,0,2.15,0h65.37a10.09,10.09,0,0,1,2.86.14l0,3.45c-1,.7-1,1.77-1,2.83-1.36,4.39-3,8.64-6.64,11.72-1.29,1.09-2.18,2.52-3.73,3.45-2.13,1.27-4.26,2.7-6.6,3.27-2,.48-3.78,1.53-5.91,1.5-3.35,0-6.71.18-10.07.18-5.67,0-11.35,0-17-.1-5.83-.14-11.66,0-17.5,0a13.34,13.34,0,0,0-1.91.08.77.77,0,0,0-.66,1.06c-.06.63-.17,1.26-.17,1.89q0,20.79,0,41.57c0,.55.09,1.11.13,1.66s-.13.94-.13,1.42q0,16.1,0,32.2c0,.47.08.95.12,1.42s-.12.95-.14,1.42c-.08,2.21-.57,2.59-2.77,2.06a7.24,7.24,0,0,1-1.32-.53l-6.51-3c-.14.28-.33.49-.33.69,0,5.27,0,10.55-.09,15.82,0,.79.48,1.06,1,1.43,1.18.78,2.58.81,3.86,1.21,2,.62,3.88,1.88,6.13,1.6C155,309.61,155.71,309.77,155.92,310.32ZM785,121.55c.66.37.59,1,.66,1.51,1.35,10.15,3.25,20.19,5.59,30.15,3.94,16.79,8,33.55,12.06,50.32q4.9,20.38,9.83,40.76c.59,2.45.59,2.45,3.13,2.46,4.72,0,9.44,0,14.16,0,4.23,0,3.26.42,4.28-3.19Q850.47,188,866.2,132.46q4.51-15.91,9-31.82c.63-2.24.61-2.26-1.72-2.27-5.2,0-10.4,0-15.6,0-1.25,0-2,.32-2.14,1.63a10.51,10.51,0,0,1-.38,1.39c-5.74,21.94-11.54,43.87-17.21,65.84-4.81,18.64-9.59,37.29-13.21,56.2-.06.33-.2.6-.67.59-1.72-11.76-4-23.42-6.74-35q-7.53-32.07-15.21-64.11c-2-8.31-4-16.61-6-24.93-.23-1-.47-1.61-1.64-1.6-5.84,0-11.68,0-17.52,0-.94,0-1.52.3-1.64,1.3a11,11,0,0,1-.38,1.39q-10,37.76-20,75.52c-3.87,14.67-7.75,29.34-10.57,44.27-.22,1.14-.05,2.41-1,3.54-.22-1-.44-1.82-.6-2.67-2.38-12.72-5.1-25.37-8-38q-7.52-32.32-15.12-64.63-2.18-9.33-4.37-18.66c-.48-2.06-.49-2.06-2.71-2.08H708c-3.76,0-7.52,0-11.28,0-2,0-2,0-1.51,2.07,0,.16.1.3.14.46q7.73,30.54,15.47,61.09,10.49,41.34,21,82.67c.53,2.08.54,2.09,2.68,2.09q7.68,0,15.36,0c3,0,2.48.17,3.19-2.41q9.32-34,18.61-67.94c3.5-12.79,7.21-25.52,10-38.5C782.76,132.47,783.85,127,785,121.55Zm-204.62.85c.22-.12.35-.08.45.1.26.49.56,1,.8,1.47a360.09,360.09,0,0,0,17.2,31.85c18.18,30,37.11,59.58,55.56,89.44a3,3,0,0,0,2.94,1.52c4.8-.06,9.6,0,14.4,0,3.64,0,3.06.13,3.06-3.1q0-71,0-142.07c0-.48,0-1,0-1.44,0-1.71-.05-1.77-1.74-1.78-4.72,0-9.44,0-14.16,0-2.21,0-2.24,0-2.23,2.25.14,27.67-.31,55.35.26,83,.17,8.24.39,16.47,1,24.68.32,4.29.57,8.58.86,12.9-.9-.24-.94-1.07-1.22-1.68a354.68,354.68,0,0,0-19.84-36.68c-17.34-27.72-34.86-55.33-52.27-83a3,3,0,0,0-3-1.51c-5.36.05-10.72,0-16.08,0-3.46,0-2.9-.08-2.9,3q0,71.15,0,142.31a11.84,11.84,0,0,1,0,1.44c-.16,1.3.48,1.66,1.67,1.64,3.44,0,6.88,0,10.32,0,1.52,0,3-.05,4.56,0,1.27.05,1.76-.48,1.6-1.71a5.74,5.74,0,0,1,0-.72c-.14-28.87.29-57.75-.26-86.62-.19-9.75-.4-19.51-1-29.25C580.25,126.45,580.35,124.41,580.35,122.4Zm540.45,51.12q0,34.8,0,69.59c0,.56,0,1.12,0,1.68-.11,1.14.21,1.72,1.52,1.8,2.71.16,5.4.6,8.11.76a306.41,306.41,0,0,0,33.56.6,116.13,116.13,0,0,0,30.35-5.35c17.28-5.62,30.52-16.13,38.95-32.39a81.15,81.15,0,0,0,8.41-28.58c1.25-11.12,1.13-22.21-1.48-33.14-5.29-22.16-18.47-37.53-39.94-45.5-10.22-3.79-20.9-5.3-31.72-5.69a256.38,256.38,0,0,0-46.15,2.7c-1.19.17-1.75.52-1.62,1.76a16.07,16.07,0,0,1,0,1.68ZM1066,175.67a5.46,5.46,0,0,1,2-.94,41.69,41.69,0,0,0,15.11-9.93c8.54-9,11.62-19.81,10.34-32-1.57-14.9-9.43-25.13-23.19-30.86-8-3.34-16.5-4.4-25.08-4.67a201,201,0,0,0-39.44,2.38c-3.92.65-3.17,0-3.17,3.56q0,69.35,0,138.7c0,1.51-.64,3.44.28,4.42s3,.37,4.61.39c4.16.06,8.32,0,12.48,0,1.71,0,1.72-.06,1.77-1.76,0-.56,0-1.12,0-1.68q0-28.8,0-57.59a16.4,16.4,0,0,0,0-1.68c-.12-1.18.42-1.51,1.53-1.49,3.44.05,6.88,0,10.32,0a79.09,79.09,0,0,1,12,.53c8.38,1.31,14.71,5.46,18.66,13.08a50.85,50.85,0,0,1,4.21,11.44c1.81,7.45,3.49,14.93,5.33,22.38a122.37,122.37,0,0,0,4.52,14.9,2.59,2.59,0,0,0,2.86,1.89c5.28-.08,10.56,0,15.84,0,.59,0,1.3.26,1.75-.47-.67-1.78-1.4-3.55-2-5.37-3.58-10.78-6-21.87-8.6-32.91-1.42-6-3.05-11.92-6-17.38-3.51-6.46-8.36-11.47-15.32-14.19C1066.44,176.31,1066.11,176.24,1066,175.67Zm-171.78-3.2v20.64q0,25.79,0,51.59c0,2.1,0,2.11,2.08,2.13h78.22a16.68,16.68,0,0,1,1.68,0c1.22.12,1.48-.5,1.47-1.58,0-4.4-.05-8.8,0-13.2,0-1.23-.5-1.53-1.57-1.43-.56,0-1.12,0-1.68,0H915.67c-2.39,0-2.27.15-2.27-2.15q0-24.59,0-49.19c0-2.11,0-2.11,2.09-2.14H967.8c.64,0,1.28,0,1.92,0,.88,0,1.32-.27,1.32-1.23q0-6.72,0-13.44c0-.94-.4-1.29-1.3-1.25-.64,0-1.28,0-1.92,0H915.76c-2.34,0-2.34,0-2.36-2.36,0-.08,0-.16,0-.24q0-20.88,0-41.75c0-.48,0-1,0-1.44,0-.72.36-1,1-1s1.12,0,1.68,0h56.39c1.81,0,1.84,0,1.84-1.83q0-6.12,0-12.24c0-2,0-2-1.93-2H896.36c-2.09,0-2.1,0-2.12,2.11,0,.48,0,1,0,1.44Zm-490.56,0q0,35.75,0,71.49c0,2.71-.53,2.78,2.66,2.78H420c3.34,0,2.81,0,2.82-2.86q0-30.59,0-61.18c0-.56,0-1.12,0-1.68-.11-1.19.47-1.57,1.56-1.49.56,0,1.12,0,1.68,0h29.75c7,0,14.07,0,21.11,0,2,0,2,0,2-2q0-6,0-12c0-1.87,0-1.87-1.82-1.93-.56,0-1.12,0-1.68,0H426c-.64,0-1.28,0-1.92,0-.91,0-1.33-.37-1.27-1.29,0-.48,0-1,0-1.44q0-22,0-43.9c0-2.79-.31-2.53,2.6-2.53h55.18c.56,0,1.12,0,1.68,0,1.09.1,1.35-.45,1.34-1.43,0-4.4,0-8.8,0-13.19,0-1.18-.49-1.58-1.58-1.5-.4,0-.8,0-1.2,0H406.49c-3.35,0-2.81,0-2.81,2.86Q403.66,136.86,403.68,172.48ZM511,172.32q0,35.51,0,71c0,.56,0,1.12,0,1.68,0,1.69.05,1.73,1.75,1.73,4.72,0,9.44,0,14.15,0,3.72,0,3.23.26,3.23-3.18q0-71,0-142c0-.48,0-1,0-1.44-.06-1.68-.06-1.72-1.79-1.73-4.88,0-9.76,0-14.63,0-3,0-2.71-.21-2.71,2.7Q511,136.69,511,172.32Z" transform="translate(-23.44 -34.32)"/><path class="cls-4" d="M23.44,181.68c.54-.23.71-1,1.43-1a13.58,13.58,0,0,1-.26,4.74c-.92,3.55-.6,7.08-.09,10.62a.76.76,0,0,0,.3,1c-.09,1.28.28,2.55,0,3.83-.74.07-.89-.73-1.42-1Z" transform="translate(-23.44 -34.32)"/><path class="cls-4" d="M170.64,309.7l.16.62H155.92c-.21-.55-1-.71-1-1.4,1.76-.31,3.35.53,5,.72a41.18,41.18,0,0,0,9.89,0Z" transform="translate(-23.44 -34.32)"/><path class="cls-5" d="M785,121.55c-1.12,5.47-2.2,10.92-3.35,16.35-2.75,13-6.46,25.71-10,38.5q-9.29,34-18.61,67.94c-.71,2.58-.22,2.4-3.19,2.41q-7.68,0-15.36,0c-2.14,0-2.15,0-2.68-2.09q-10.5-41.34-21-82.67-7.75-30.54-15.47-61.09c0-.15-.1-.3-.14-.46-.49-2-.49-2.05,1.51-2.07,3.76,0,7.52,0,11.28,0h4.8c2.22,0,2.23,0,2.71,2.08q2.19,9.33,4.37,18.66,7.56,32.31,15.12,64.63c2.93,12.6,5.65,25.25,8,38,.16.85.38,1.68.6,2.67.94-1.13.78-2.4,1-3.54,2.82-14.92,6.7-29.6,10.57-44.27q10-37.76,20-75.52a11,11,0,0,0,.38-1.39c.13-1,.7-1.31,1.64-1.3,5.84,0,11.68,0,17.52,0,1.17,0,1.41.64,1.64,1.6,2,8.32,4,16.61,6,24.93Q810,156.93,817.54,189c2.72,11.58,5,23.24,6.74,35,.47,0,.6-.26.67-.59,3.63-18.92,8.41-37.56,13.21-56.2,5.66-22,11.46-43.89,17.21-65.84a10.51,10.51,0,0,0,.38-1.39c.15-1.31.89-1.65,2.14-1.63,5.2.05,10.4,0,15.6,0,2.33,0,2.35,0,1.72,2.27q-4.49,15.91-9,31.82Q850.45,188,834.68,243.56c-1,3.61-.05,3.17-4.28,3.19-4.72,0-9.44,0-14.16,0-2.54,0-2.54,0-3.13-2.46q-4.92-20.38-9.83-40.76c-4-16.77-8.12-33.53-12.06-50.32-2.34-10-4.24-20-5.59-30.15C785.55,122.53,785.62,121.92,785,121.55Z" transform="translate(-23.44 -34.32)"/><path class="cls-6" d="M580.35,122.4c0,2-.1,4,0,6.07.57,9.74.79,19.49,1,29.25.55,28.87.12,57.75.26,86.62a5.74,5.74,0,0,0,0,.72c.16,1.23-.33,1.76-1.6,1.71-1.52-.06-3,0-4.56,0-3.44,0-6.88,0-10.32,0-1.19,0-1.83-.34-1.67-1.64a11.84,11.84,0,0,0,0-1.44q0-71.15,0-142.31c0-3.1-.55-3,2.9-3,5.36,0,10.72,0,16.08,0a3,3,0,0,1,3,1.51c17.41,27.68,34.93,55.29,52.27,83a354.68,354.68,0,0,1,19.84,36.68c.29.6.32,1.44,1.22,1.68-.28-4.32-.54-8.61-.86-12.9-.61-8.22-.83-16.45-1-24.68-.57-27.67-.12-55.35-.26-83,0-2.22,0-2.24,2.23-2.25,4.72,0,9.44,0,14.16,0,1.69,0,1.69.06,1.74,1.78,0,.48,0,1,0,1.44q0,71,0,142.07c0,3.22.58,3.09-3.06,3.1-4.8,0-9.6,0-14.4,0a3,3,0,0,1-2.94-1.52c-18.45-29.86-37.39-59.41-55.56-89.44A360.09,360.09,0,0,1,581.59,124c-.24-.5-.53-1-.8-1.47C580.7,122.32,580.57,122.28,580.35,122.4Z" transform="translate(-23.44 -34.32)"/><path class="cls-5" d="M1120.8,173.52V103.45a16.07,16.07,0,0,0,0-1.68c-.13-1.23.42-1.58,1.62-1.76a256.38,256.38,0,0,1,46.15-2.7c10.82.39,21.5,1.9,31.72,5.69,21.48,8,34.65,23.33,39.94,45.5,2.61,10.92,2.73,22,1.48,33.14a81.15,81.15,0,0,1-8.41,28.58c-8.43,16.26-21.67,26.77-38.95,32.39A116.13,116.13,0,0,1,1164,248a306.41,306.41,0,0,1-33.56-.6c-2.71-.16-5.4-.6-8.11-.76-1.31-.08-1.63-.66-1.52-1.8.05-.55,0-1.12,0-1.68Q1120.8,208.32,1120.8,173.52ZM1140,173q0,28.06,0,56.12c0,2.59,0,2.62,2.58,2.87,3.34.32,6.69.55,10,.61,8.88.17,17.74.06,26.45-2,20.66-4.88,34.43-17.18,40.28-37.76a83.62,83.62,0,0,0,1.58-38.93c-1.93-10.11-6.21-19.11-13.69-26.39-6.59-6.41-14.51-10.34-23.33-12.61-12.18-3.15-24.52-2.92-36.91-1.69-1.9.19-3.79.55-5.69.85-.91.14-1.44.58-1.33,1.61a15,15,0,0,1,0,1.68Q1140,145.21,1140,173Z" transform="translate(-23.44 -34.32)"/><path class="cls-5" d="M1066,175.67c.09.57.42.64.71.76,7,2.73,11.81,7.74,15.32,14.19,3,5.46,4.6,11.37,6,17.38,2.61,11,5,22.13,8.6,32.91.6,1.81,1.33,3.59,2,5.37-.45.73-1.15.47-1.75.47-5.28,0-10.56,0-15.84,0a2.59,2.59,0,0,1-2.86-1.89,122.37,122.37,0,0,1-4.52-14.9c-1.84-7.44-3.52-14.93-5.33-22.38a50.85,50.85,0,0,0-4.21-11.44c-3.95-7.62-10.28-11.77-18.66-13.08a79.09,79.09,0,0,0-12-.53c-3.44,0-6.88,0-10.32,0-1.11,0-1.65.31-1.53,1.49a16.4,16.4,0,0,1,0,1.68q0,28.8,0,57.59c0,.56,0,1.12,0,1.68-.05,1.7-.06,1.74-1.77,1.76-4.16,0-8.32.05-12.48,0-1.57,0-3.57.72-4.61-.39s-.28-2.91-.28-4.42q0-69.35,0-138.7c0-3.57-.75-2.9,3.17-3.56a201,201,0,0,1,39.44-2.38c8.57.28,17.06,1.33,25.08,4.67,13.76,5.74,21.62,16,23.19,30.86,1.28,12.17-1.81,23-10.34,32a41.69,41.69,0,0,1-15.11,9.93A5.46,5.46,0,0,0,1066,175.67Zm-44.31-34.92q0,12.47,0,24.95c0,2.25,0,2.27,2.19,2.27,5.6,0,11.19,0,16.79,0a47.44,47.44,0,0,0,11.41-1.19c8.14-2,15-6,19.15-13.6,3.17-5.74,3.87-11.93,2.94-18.36-1.13-7.85-5-13.89-11.88-17.88a29.91,29.91,0,0,0-7.05-2.94c-10.56-2.9-21.19-2.32-31.85-.67-1.44.22-1.74.9-1.73,2.24C1021.74,124,1021.71,132.35,1021.71,140.74Z" transform="translate(-23.44 -34.32)"/><path class="cls-5" d="M894.24,172.47V101.93c0-.48,0-1,0-1.44,0-2.08,0-2.11,2.12-2.11h76.06c1.91,0,1.93,0,1.93,2q0,6.12,0,12.24c0,1.8,0,1.83-1.84,1.83H916.12c-.56,0-1.12,0-1.68,0s-1.06.25-1,1c0,.48,0,1,0,1.44q0,20.88,0,41.75c0,.08,0,.16,0,.24,0,2.34,0,2.36,2.36,2.36h52.07c.64,0,1.28,0,1.92,0,.9,0,1.3.31,1.3,1.25q0,6.72,0,13.44c0,1-.44,1.27-1.32,1.23-.64,0-1.28,0-1.92,0H915.5c-2.07,0-2.09,0-2.09,2.14q0,24.59,0,49.19c0,2.3-.13,2.15,2.27,2.15h58.79c.56,0,1.12,0,1.68,0,1.07-.1,1.59.2,1.57,1.43-.06,4.4,0,8.8,0,13.2,0,1.08-.25,1.7-1.47,1.58a16.68,16.68,0,0,0-1.68,0H896.32c-2.06,0-2.08,0-2.08-2.13q0-25.79,0-51.59Z" transform="translate(-23.44 -34.32)"/><path class="cls-5" d="M403.68,172.48q0-35.63,0-71.25c0-2.85-.54-2.87,2.81-2.86h74.37c.4,0,.8,0,1.2,0,1.08-.08,1.59.31,1.58,1.5,0,4.4,0,8.8,0,13.19,0,1-.25,1.53-1.34,1.43-.56,0-1.12,0-1.68,0H425.45c-2.91,0-2.6-.26-2.6,2.53q0,22,0,43.9c0,.48,0,1,0,1.44-.06.92.36,1.32,1.27,1.29.64,0,1.28,0,1.92,0h49.42c.56,0,1.12,0,1.68,0,1.79.06,1.82.06,1.82,1.93q0,6,0,12c0,1.93,0,2-2,2-7,0-14.07,0-21.11,0H426.07c-.56,0-1.12,0-1.68,0-1.09-.08-1.67.31-1.56,1.49.05.55,0,1.12,0,1.68q0,30.59,0,61.18c0,2.88.53,2.86-2.82,2.86H406.34c-3.19,0-2.66-.07-2.66-2.78Q403.67,208.23,403.68,172.48Z" transform="translate(-23.44 -34.32)"/><path class="cls-7" d="M290.87,196.59a27.8,27.8,0,0,1,.12-4.82c.65,0,1.22-.11,1.22-1s-.57-1-1.22-1a22.29,22.29,0,0,1-.11-4.34c.74-.91.34-2,.36-3,0-.76-.61-.81-1.19-.84a4.44,4.44,0,0,1-.2-1.91c.75-1.35.66-1.59-.78-1.92l-.13-1c.63-1.51.59-1.62-.85-2.38l-.14-1c.92-1.14.23-1.6-.81-1.91l-.13-1c.69-1.36.62-1.55-.8-2h-.15l0-1.89c.61-1.22-.42-.82-.93-.94l-.26-.87c.08-.93.42-1.95-.86-2.38l-.06-.51.06-1.75c.11-.7-.12-1.14-.88-1.19l-.14.07a6.2,6.2,0,0,0-.07-2.34c.25-.17.61-.35.46-.7-.24-.53-.78-.35-1.22-.38l-.14.07.07-1.77c.11-.69-.12-1.14-.89-1.18l-.13.07,0-1.81a3.75,3.75,0,0,1,1.34-2.15c2.28-2.51,5.17-4.37,7.41-6.92a2.17,2.17,0,0,1,1.91-.71c.94.56,2.27.72,2,2.38-.08.56.55.91,1.16,1l.14,1c-.1.12-.29.23-.29.35a11.86,11.86,0,0,0,1.44,4.7c.06.14.42.15.64.23l.14,1c-.73,1.44-.63,1.64.94,1.91l.09.85c0,.78-.44,1.78.86,2l.09.87c.15.88-.65,2.11.89,2.49l.09.82c0,.79-.47,1.81.87,2.06l.09.84c-.07,1-.25,2,.9,2.52a.46.46,0,0,1,0,.43q0,.93,0,1.86a.94.94,0,0,0,1,1.06h0c-.47,2.09.93,3.77,1.24,5.7.06.39.57.51,1,.57l.08,1c-.69,2.06-.63,2.29.84,2.85a3.9,3.9,0,0,1,.13,1.94,6.53,6.53,0,0,0-.1,4.76c.23.8-.35,2,.95,2.41a20.11,20.11,0,0,1,0,4.79c-1.74,1.71-1.47,3.7-.81,5.75a5.32,5.32,0,0,1-.15,2.41c-1.34,1-1.44,1.38-.82,2.87l-.11,1c-1.36,1-1.47,1.34-.87,2.86l-.13,1c-1.59,0-1.22,1.12-1.2,2.06a5.12,5.12,0,0,1-.76,2.65,53.33,53.33,0,0,1-14.07,20c-2.74,2.51-5.92,4.47-8.8,6.77-3.38,2.7-7.09,4.93-10.38,7.77a63.21,63.21,0,0,1-6.8,4.78c-1.05.69-1.88,1.59-2.91,2.29-4.76,3.26-9.51,6.55-14.1,10-2.64,2-5.49,3.75-8,5.86-3.14,2.61-6.68,4.64-9.81,7.25-2.71,2.25-5.87,4-8.62,6.16-2.53,2-5.37,3.59-7.8,5.76-1.47,1.31-3.27,2.23-4.86,3.41a104.13,104.13,0,0,1-9.7,6.81c-2.64,1.54-5.13,3.34-8.13,4.18-1.27.35-1.67.19-1.68-1.07,0-4.8,0-9.6,0-14.39,0-1.62,1.15-2.4,2.35-2.89a8.38,8.38,0,0,0,2.17-1.34c4.34-3.63,9.17-6.59,13.63-10,4.2-3.24,8.47-6.41,12.77-9.48,4.75-3.39,9.32-7.07,14.25-10.2,1.07-.68,2-1.55,3-2.27,2.14-1.5,4.25-3.05,6.35-4.61,4.39-3.25,8.65-6.68,13.18-9.71,3.65-2.45,7-5.26,10.68-7.7,3.35-2.23,6.65-4.59,9.81-7a37.07,37.07,0,0,0,9.4-10.11c.32-.54.72-1,1.09-1.53.55,0,1.05,0,1.36-.7.85-1.92,1.79-3.8,2.69-5.7a1.38,1.38,0,0,0-.18-1.75l.13-1c1.41-.34,1.5-.55.79-1.91l.17-1.93C291.51,198.92,291.57,198.68,290.87,196.59Z" transform="translate(-23.44 -34.32)"/><path class="cls-6" d="M511,172.32q0-35.63,0-71.25c0-2.91-.32-2.69,2.71-2.7,4.88,0,9.76,0,14.63,0,1.73,0,1.74.06,1.79,1.73,0,.48,0,1,0,1.44q0,71,0,142c0,3.43.49,3.17-3.23,3.18-4.72,0-9.44,0-14.15,0-1.7,0-1.7,0-1.75-1.73,0-.56,0-1.12,0-1.68Q511,207.82,511,172.32Z" transform="translate(-23.44 -34.32)"/><path class="cls-6" d="M179,97.6c-2.55,0-5.12.24-7.65,0-4-.33-7.86.65-11.69,1.59a36.68,36.68,0,0,0-9.33,3.56,40.11,40.11,0,0,0-9.16,6.62c-3.8,3.9-7.27,8.13-9.33,13.37a66.91,66.91,0,0,0-2.5,6.79,29,29,0,0,0-1.26,7.5c0,2.55-.09,5.1-.14,7.65a2.43,2.43,0,0,0-2.05,1,9,9,0,0,1-1.75,1.63c-3.15,1.82-5.4,4.69-8.22,6.88-2,1.58-3.2,3.41-2.7,6.09.13.68.14,1.5-.89,1.65-.17-8.47-.42-16.95.13-25.39a54.25,54.25,0,0,1,2.43-12.1A57.79,57.79,0,0,1,123,107.78a68.92,68.92,0,0,1,6.71-8.05c2.93-3,6.41-5.29,9.62-7.9a32.72,32.72,0,0,1,7-3.94c2-.95,4.09-1.91,6.15-2.84a21.08,21.08,0,0,1,3.82-1c2.11-.5,4.28-1,6.46-1.35,10.16-1.67,20.37-.39,30.54-.82a7.91,7.91,0,0,1,1,.07,3.76,3.76,0,0,1-1.17,2.28c-2.54,2.37-5,4.87-7.69,7-2.23,1.78-3.94,4.1-6.31,5.71C179,97,179,97.37,179,97.6Z" transform="translate(-23.44 -34.32)"/><path class="cls-8" d="M112.73,50.74c-2.6.39-5.23.64-7.79,1.19a33.14,33.14,0,0,0-12.08,4.75c-1,.7-2.07,1.39-3.13,2-3.38,1.87-5.81,4.79-8.33,7.54a38,38,0,0,0-5.15,8c-1.78,3.35-2.59,7.06-4.06,10.52-.42,1,.11,2.34-1.16,3a8.23,8.23,0,0,0-.11-1.19C70.6,85.16,70,84.94,69,86c-4.07,4.14-9,7.35-12.78,11.78a10.53,10.53,0,0,1-2,2c-1.27.84-2.17,2.43-4,2.2,0-1.15,1.2-2.06.67-3.31l.07-.88c1.24-.21,1.41-1,1.18-2.07l.11-.91c1.07-.32,1-1.14.84-2l.08-.91a2.12,2.12,0,0,0,.9-2.45l.12-.91c1-.34,1-1.13.84-2l.09-.91c1-.36,1-1.13.84-2l.11-.9c1-.36,1-1.13.84-2L57,79.42a1.54,1.54,0,0,0,1.08-1.15,18.45,18.45,0,0,0,.91-3c.11-1.26,1.36-2.19.9-3.56l.14-.88c.66-.11.78-.67,1-1.16.94-1.79,1.46-3.8,2.93-5.3.16-.17.06-.59.08-.9l.13-.48a4.08,4.08,0,0,0,2-3.28,75.06,75.06,0,0,1,8.25-9.62c2-2,4.5-3.53,6.83-5.19A53.21,53.21,0,0,1,93.59,38.6c2-.73,3.88-1.41,5.89-2,9.27-2.67,18.72-1.66,28.12-1.74a4.74,4.74,0,0,1-2.22,3.27c-4.39,2.95-7.79,6.94-11.5,10.61C113.32,49.31,112.63,49.8,112.73,50.74Z" transform="translate(-23.44 -34.32)"/><path class="cls-9" d="M96,253.63c1.71.64,3,1.94,4.44,3,3.52,2.46,7,5,10.43,7.57.95.69,1.19.62,1.29-.45.07-.71,0-1.44,0-2.16q0-21.34,0-42.67c0-.88.07-1.75.1-2.63,1.32.27.9,1.34.9,2.13,0,6.31,0,12.61,0,18.92,0,2.55,0,5.11,0,7.66,0,1.46.49,1.69,1.71.87a5,5,0,0,0,1.23-1.12c1.29-1.74,3-3,4.51-4.53,1.84-1.91,4.32-3,6.1-5,.21-.23.75-.18,1.13-.25,0,.8.11,1.59.11,2.39q0,28,0,55.9a4.46,4.46,0,0,1-.21,2.32c-.17,0-.37.17-.45.11-2.5-1.68-5.09-3.24-7.43-5.12s-5.1-3.72-7.67-5.53c-1.47-1-2.75-2.31-4.3-3.26-4-2.47-7.7-5.52-11.57-8.25-3.08-2.16-6.17-4.34-9.16-6.63-.81-.62-1.93-1.06-2.32-2.18a4.52,4.52,0,0,0,3.77-1.59c1.74-1.72,3.22-3.77,5.31-5C96.39,256.59,96.69,256.75,96,253.63Z" transform="translate(-23.44 -34.32)"/><path class="cls-10" d="M214.78,218.92l-.78.22a.94.94,0,0,0-1.19.63l-.74.14c-1-.35-1.58.18-2.11.88l-.77.11a2.28,2.28,0,0,0-2.6.84l-1.24.11a3.88,3.88,0,0,0-3.57.83l-2.67.12a4.24,4.24,0,0,0-2.31-.22c-3.07,0-6.14,0-9.21-.07.08-.3.07-.7.26-.9,2.09-2.18,4-4.61,6.51-6.3a49,49,0,0,0,6.69-6.1c.21-.21.39-.52-.06-1.13H155.11a.77.77,0,0,1,.66-1.06,13.34,13.34,0,0,1,1.91-.08c5.83,0,11.67-.11,17.5,0,5.68.13,11.35.09,17,.1,3.36,0,6.71-.23,10.07-.18,2.13,0,3.95-1,5.91-1.5,2.34-.57,4.47-2,6.6-3.27,1.55-.92,2.43-2.36,3.73-3.45,3.65-3.07,5.28-7.33,6.64-11.72,1.38-.91,1.49-1.26,1-2.83l0-3.45c.36-.41.25-.71-.24-.87s-1.33.26-1.64-.76a79.81,79.81,0,0,0,6.69-6.34c.69-.65,1.7-.92,2.17-1.83a6.38,6.38,0,0,1,2.76-2.54,5.86,5.86,0,0,0,3.13-3.4l2.88,0c.13,5.51.31,11-.1,16.53a39.74,39.74,0,0,1-3,12.16,47.26,47.26,0,0,1-6.08,10.79,48.22,48.22,0,0,1-5.54,6,40.92,40.92,0,0,1-10.68,7.34C215.43,217.5,215,218.1,214.78,218.92Z" transform="translate(-23.44 -34.32)"/><path class="cls-11" d="M167,127a1.25,1.25,0,0,1,1-.33c.85.55,1.07-.15,1.37-.69l.68-.08a2.82,2.82,0,0,0,3.17-.88,15.69,15.69,0,0,1,4.73-.33c9.87-.05,19.74,0,29.61,0a3.4,3.4,0,0,1,1.64.22c0,.63.15,1.37-.47,1.77-2.17,1.42-3.57,3.71-5.64,5.16-2.52,1.76-4.42,4.1-6.57,6.2a2,2,0,0,0-.74,1.45l-16.73,0c-1.18,0-2.45-.14-2.94,1.37-.87-.09-1.16.92-1.92,1-1.49-.19-2,.93-2.56,2-.62,0-.8.4-.79.94l.09,1-.14-.07c-1.12.16-.92,1-.84,1.72L170,160a2.78,2.78,0,0,0-2.32,1c-1,1-2,2-3,3a27.2,27.2,0,0,1-4.94,4.43c-1.53.91-2.76,2.35-4.65,2.63a30.68,30.68,0,0,1-.12-5q0-9.88,0-19.77c0-1.19.15-2.37.23-3.55,1.12-.7,1.6-1.59.83-2.84l.13-1c1.61-.51,1.41-2,1.74-3.21l.18-.63a6.57,6.57,0,0,0,3.07-3.48,5.35,5.35,0,0,1,3-2.76.79.79,0,0,0,.9-.92.57.57,0,0,1,.73-.16C166.49,128,166.93,127.76,167,127Z" transform="translate(-23.44 -34.32)"/><path class="cls-12" d="M50.15,102c1.86.24,2.76-1.35,4-2.2a10.53,10.53,0,0,0,2-2C60,93.33,64.94,90.12,69,86c1-1,1.59-.82,1.91.56A8.23,8.23,0,0,1,71,87.73l-.09.83c-1.35.26-.86,1.27-.86,2.09l-.09.79c-1.57.64-1.63.78-1,2.38l-.13,1c-1.42.33-1.51.54-.82,1.92l-.13,1c-.71,0-1.29.2-1.24,1.05.07,1.07-.57,2-.72,2.94-.22,1.4-1.36,2.65-.75,4.19l-.14,1c-.85.4-1.62.84-.8,1.93l-.15.95c-2,.12-1.12,1.6-1.22,2.61.24,2-.82,3.68-1.35,5.46-.81,2.76-1.77,5.5-2.55,8.28-.28,1-1,1.8-1,2.87-1.53.25-1.62.42-1,1.89l-.13,1c-1.42.37-1.45.45-.82,1.9l-.1,1c-.82.41-1.49.87-.81,1.91l-.14,1c-1.41.64-1.43.7-.8,1.92a2.43,2.43,0,0,1-.18,1.44c-1.43.32-1.52.53-.82,1.91l-.14,1a6.88,6.88,0,0,0-3.1,2.13c-2.06,2.88-4.83,5.06-7.2,7.63a6.48,6.48,0,0,1-2.3,1.67,9.36,9.36,0,0,0-4.08,3.54,23.58,23.58,0,0,1-3.64,3.78c-.82.75-1.31.5-1.57-.67a6.41,6.41,0,0,1-.07-1l.09-.81c1.55-.39.73-1.62.89-2.5a1,1,0,0,1,.09-.86c1.3-.25.8-1.25.86-2l.07-.85c.4,0,.79-.15.94-.56.48-1.37.94-2.74,1.36-4.13,0-.14-.22-.37-.34-.56l.13-1a1.06,1.06,0,0,0,.86-.71c.76-2.2,1.52-4.4,2.24-6.61a1.15,1.15,0,0,0-.31-1.29l.12-1c1.71-.44,1.1-1.83,1.2-2.93,1-.57.9-1.5.8-2.43l.11-.91c1-.35,1-1.13.84-2l.11-.92a13.69,13.69,0,0,0,1.81-5.32l.11-.92c.9-.4,1-1.13.8-2l.12-.91c.24-.2.65-.37.69-.6A13.38,13.38,0,0,1,46,115.4,1.69,1.69,0,0,0,46,114l.11-.85c1-.37,1.15-1.11.84-2l.21-.47c.88,0,1.35-.33,1.06-1.29a3.15,3.15,0,0,1,0-1.56c.8-.1,1.18-.49.94-1.33a3.23,3.23,0,0,1,0-1.55c.34-.08.77,0,.9-.48s-.23-.49-.47-.65Z" transform="translate(-23.44 -34.32)"/><path class="cls-13" d="M155.11,208.08H201c.46.61.28.92.06,1.13a49,49,0,0,1-6.69,6.1c-2.51,1.7-4.42,4.12-6.51,6.3-.19.2-.18.59-.26.9l-16.62.08c-1.47-.06-1.13,1.05-1.14,1.85,0,5.75,0,11.49,0,17.24-1,.07-1.41.84-2,1.54a19.42,19.42,0,0,1-4.7,4.64,26.2,26.2,0,0,0-5.36,4.23,3,3,0,0,1-2.71,1.12c0-.55-.13-1.11-.13-1.66q0-20.79,0-41.57C154.94,209.34,155,208.71,155.11,208.08Z" transform="translate(-23.44 -34.32)"/><path class="cls-14" d="M176.08,140.81c.49-1.51,1.76-1.36,2.94-1.37l16.73,0h21.58c8.23,0,16.46,0,24.7,0a4.09,4.09,0,0,0,3.5-1.45c1.26-1.43,2.49-2.89,3.75-4.33a37.49,37.49,0,0,1,7.51-6.25,2.62,2.62,0,0,0,1.38-2.57,4.94,4.94,0,0,1,2.35-.26h25.63c2.25,0,2.18,0,3.16,2.22.41.9.43,1.86.75,2.75,1.27,3.54,2.55,7.07,3.81,10.62.07.19-.07.46-.12.69a3.63,3.63,0,0,1-.92-.17c-.73-.34-1-.06-1.09.65a2.17,2.17,0,0,0-1.91.71c-2.24,2.55-5.13,4.41-7.41,6.92a3.75,3.75,0,0,0-1.34,2.15l-.85-.18-.13-.89c.19-1,.16-1.93-1.17-2.12-.2-2.31-1.31-4.33-2-6.5a.82.82,0,0,0-.88-.63l-1.92,0H176.08Z" transform="translate(-23.44 -34.32)"/><path class="cls-15" d="M244.24,81.92q14.51,0,29-.09c1.12,0,1.56.34,1.88,1.52A101.36,101.36,0,0,0,279,95.49c1.1,2.61,1.81,5.32,2.72,8,.55,1.58,1.39,3.2,1.33,4.91a1.53,1.53,0,0,1-1.21.39c-4.56,0-9.12,0-13.67,0-1.88,0-1.74-.1-2.33-1.91a79.82,79.82,0,0,0-2.7-8.31c-.28-.62-.53-.89-1.18-.86s-1.12,0-1.68,0H231.51c-.88,0-1.76-.05-2.63-.08a8,8,0,0,1,3.64-3.87,22.78,22.78,0,0,0,3.31-2.27c2.89-2.6,5.1-5.84,8-8.47A1.53,1.53,0,0,0,244.24,81.92Z" transform="translate(-23.44 -34.32)"/><path class="cls-16" d="M31.07,160.89a6.41,6.41,0,0,0,.07,1c.26,1.16.75,1.42,1.57.67a23.58,23.58,0,0,0,3.64-3.78,9.36,9.36,0,0,1,4.08-3.54,6.48,6.48,0,0,0,2.3-1.67c2.37-2.57,5.14-4.76,7.2-7.63a6.88,6.88,0,0,1,3.1-2.13A20.27,20.27,0,0,1,51.37,149,21.36,21.36,0,0,0,50,152.81q-2.07,6.51-4.1,13c-1,.28-1.57.78-1,1.88l-.13,1c-.79.42-1.45.89-.78,1.91l-.14,1c-1.65,1.32-1.75,3.24-2,5.1,0,0,.11.1.17.16l-.13,1c-.8.43-1.53.88-.77,1.93a4.82,4.82,0,0,1-.21,1.91c-1.15,1.08-1.67,2.3-.84,3.82a23.37,23.37,0,0,1-.11,4.34c-.65,0-1.23.11-1.23,1s.57,1,1.23,1a29,29,0,0,1,.12,4.82c-.58.49-.42,1.17-.4,1.79a2.53,2.53,0,0,1-.84,2.13c-3.22,2.86-5.73,6.4-8.86,9.35-.84.79-1.55,1.59-2.18-.16-.05-.15-.59-.13-.89-.19l-.12-1c.58-1.52.48-1.85-.88-2.86l-.11-1c.61-1.48.52-1.81-.82-2.86l-.22-.95c.25-1.28-.13-2.55,0-3.83.74-.59.39-.83-.3-1-.51-3.54-.84-7.07.09-10.62a13.58,13.58,0,0,0,.26-4.74l.22-1c1.31-1,1.4-1.36.82-2.85a3.53,3.53,0,0,1,.2-1.95c.8-.18.68-.81.7-1.38a2.84,2.84,0,0,1,.2-1.49c1.89-.09,1-1.52,1.19-2.46-.09-1.87.87-3.46,1.48-5.11C30.14,163.31,29.7,161.74,31.07,160.89Z" transform="translate(-23.44 -34.32)"/><path class="cls-11" d="M244.24,81.92a1.53,1.53,0,0,1-.45,1.07c-2.86,2.63-5.07,5.87-8,8.47a22.78,22.78,0,0,1-3.31,2.27,8,8,0,0,0-3.64,3.87c-1.67,0-3.34.07-5,.07H181.58c-.87,0-1.75,0-2.62-.08.06-.23,0-.57.19-.67,2.37-1.61,4.08-3.93,6.31-5.71,2.71-2.16,5.15-4.66,7.69-7a3.76,3.76,0,0,0,1.17-2.28c1,0,2.07-.08,3.1-.08h44.2C242.49,81.85,243.36,81.89,244.24,81.92Z" transform="translate(-23.44 -34.32)"/><path class="cls-12" d="M112.73,50.74c-.09-.94.6-1.43,1.15-2,3.71-3.67,7.11-7.66,11.5-10.61a4.74,4.74,0,0,0,2.22-3.27c8.12,0,16.23-.07,24.35-.07,7.24,0,14.48,0,21.72.07-.06.23,0,.53-.18.68-2.54,2.62-4.84,5.5-7.87,7.59-2.65,1.83-4.69,4.27-7,6.47a1.59,1.59,0,0,0-.36,1.11c-.63.06-1.26.17-1.89.17h-41.8C114,50.9,113.36,50.79,112.73,50.74Z" transform="translate(-23.44 -34.32)"/><path class="cls-15" d="M258.18,124.85a2.62,2.62,0,0,1-1.38,2.57,37.49,37.49,0,0,0-7.51,6.25c-1.25,1.44-2.49,2.9-3.75,4.33a4.09,4.09,0,0,1-3.5,1.45c-8.23,0-16.46,0-24.7,0H195.76a2,2,0,0,1,.74-1.45c2.15-2.1,4.05-4.44,6.57-6.2,2.08-1.45,3.47-3.74,5.64-5.16.62-.4.47-1.14.47-1.77a5.16,5.16,0,0,1,2.36-.23q20.69,0,41.39,0C254.68,124.63,256.43,124.78,258.18,124.85Z" transform="translate(-23.44 -34.32)"/><path class="cls-11" d="M112.29,162c1-.15,1-1,.89-1.65-.51-2.68.66-4.51,2.7-6.09,2.82-2.19,5.07-5.06,8.22-6.88a9,9,0,0,0,1.75-1.63,2.43,2.43,0,0,1,2.05-1c0,.55.11,1.11.11,1.66q0,20.66,0,41.31c0,.55-.07,1.11-.1,1.66a2.31,2.31,0,0,0-1.87.85c-3.64,3.53-7.83,6.46-11.23,10.26-.34.38-.7.94-1.6.43,0-1.46,0-3,0-4.61,0-.71.11-1.49-.91-1.64,0-5.24-.1-10.48-.1-15.73C112.19,173.28,112.25,167.64,112.29,162Z" transform="translate(-23.44 -34.32)"/><path class="cls-15" d="M112.29,194.64c1,.15.91.93.91,1.64,0,1.58,0,3.15,0,4.61.9.51,1.26,0,1.6-.43,3.39-3.8,7.58-6.73,11.23-10.26a2.31,2.31,0,0,1,1.87-.85c0,.55.11,1.11.11,1.66q0,21.14,0,42.28c0,.55-.07,1.11-.1,1.66-.38.08-.92,0-1.13.25-1.79,2-4.27,3-6.1,5-1.47,1.54-3.23,2.8-4.51,4.53a5,5,0,0,1-1.23,1.12c-1.21.82-1.68.58-1.71-.87,0-2.55,0-5.11,0-7.66,0-6.31,0-12.61,0-18.92,0-.79.42-1.86-.9-2.13C112.12,209,112.1,201.84,112.29,194.64Z" transform="translate(-23.44 -34.32)"/><path class="cls-17" d="M27,209.51c.31.06.84,0,.89.19.63,1.76,1.34,1,2.18.16,3.13-3,5.63-6.49,8.86-9.35a2.53,2.53,0,0,0,.84-2.13c0-.62-.18-1.29.4-1.79a4.53,4.53,0,0,1,.87,2.19,34.4,34.4,0,0,0,4.66,13.15c1.14,1.86,2.34,3.68,3.54,5.5,1.35,2.05,3.37,3.49,5.09,5.21,2.73,2.74,6.11,4.67,9.14,7,1.2.93,2.63,1.59,3.52,2.9-.84-.11-1.68-.88-2.5-.29-1,.74-2.29,1.1-3.2,2q-3.1,3.13-6.23,6.22a2.4,2.4,0,0,0-.89,2.09,78.74,78.74,0,0,1-14.64-11.76,60,60,0,0,1-5.22-6.53A48.32,48.32,0,0,1,28.7,213.8C28.14,212.37,27.09,211.12,27,209.51Z" transform="translate(-23.44 -34.32)"/><path class="cls-16" d="M158.3,50.72a1.59,1.59,0,0,1,.36-1.11c2.28-2.2,4.32-4.65,7-6.47,3-2.09,5.33-5,7.87-7.59.14-.15.12-.45.18-.68,3.9,0,7.79-.08,11.69-.08q14.56,0,29.11.07a5.2,5.2,0,0,1-1.83,3c-2.9,2.92-6.55,5-9.17,8.23-2.12,2.61-4.55,4.35-8.13,3.62a2.25,2.25,0,0,0-.94.07c-.47.11-.52.54-.59.93a7.28,7.28,0,0,1-1.17.19q-16.59,0-33.19,0A7.61,7.61,0,0,1,158.3,50.72Z" transform="translate(-23.44 -34.32)"/><path class="cls-15" d="M54.17,242.62a2.4,2.4,0,0,1,.89-2.09q3.14-3.09,6.23-6.22c.91-.92,2.17-1.29,3.2-2,.82-.59,1.66.18,2.5.29A4.84,4.84,0,0,1,69,234c.05.79.53,1,1.23.87s1,.37,1.43.68c4.53,3.63,9.35,6.88,14.09,10.23,1.86,1.31,3.44,2.94,5.34,4.17,0,.6.37.85.94.85h0a.86.86,0,0,0,1.06.9,1.57,1.57,0,0,1,1.82,1,.83.83,0,0,0,1,.89h0c.72,3.12.42,3-2,4.45-2.09,1.28-3.57,3.33-5.31,5a4.52,4.52,0,0,1-3.77,1.59h0a.87.87,0,0,0-1.07-.91c-1.19.19-1.94-.74-2.66-1.32-3.18-2.53-6.55-4.8-9.84-7.17-4.12-3-8.17-6-12.24-9C57.43,245.06,55.5,244.24,54.17,242.62Z" transform="translate(-23.44 -34.32)"/><path class="cls-9" d="M239,164.92a5.86,5.86,0,0,1-3.13,3.4,6.38,6.38,0,0,0-2.76,2.54c-.46.91-1.48,1.18-2.17,1.83a79.81,79.81,0,0,1-6.69,6.34c.3,1,1.1.58,1.64.76s.6.46.24.87a10.09,10.09,0,0,0-2.86-.14H157.87c-.72,0-1.44,0-2.15,0-.41,0-.41-.41-.43-.72h23.47c2.24,0,4.47,0,6.71,0a1.63,1.63,0,0,0,1.64-.66,39.55,39.55,0,0,1,7.47-7.65c1.89-1.58,3.69-3.26,5.53-4.91a2.13,2.13,0,0,0,.93-1.6c2.07,0,4.13-.08,6.2-.07Z" transform="translate(-23.44 -34.32)"/><path class="cls-18" d="M169.84,309.62a41.15,41.15,0,0,1-9.89,0c-1.66-.18-3.25-1-5-.72-2.25.28-4.12-1-6.13-1.6-1.28-.4-2.68-.43-3.86-1.21-.55-.37-1-.63-1-1.43,0-5.27.05-10.55.09-15.82,0-.21.19-.41.33-.69l6.51,3a7.24,7.24,0,0,0,1.32.53c2.19.52,2.68.14,2.77-2.06,0-.48.09-.95.14-1.42a4.61,4.61,0,0,0,3.44-1.35,111.72,111.72,0,0,0,8.16-7.72,4.23,4.23,0,0,1,3.14-1.5Z" transform="translate(-23.44 -34.32)"/><path class="cls-15" d="M201,164.93a2.13,2.13,0,0,1-.93,1.6c-1.83,1.65-3.64,3.33-5.53,4.91a39.55,39.55,0,0,0-7.47,7.65,1.63,1.63,0,0,1-1.64.66c-2.24,0-4.47,0-6.71,0H155.29c-.72-1.34-.29-2.78-.33-4.16a20,20,0,0,1,.12-4.48c1.89-.28,3.12-1.72,4.65-2.63a27.2,27.2,0,0,0,4.94-4.43c1-1,2-2,3-3a2.78,2.78,0,0,1,2.32-1c.44.45.36,1,.38,1.57.13,3.23.13,3.23,3.44,3.24Z" transform="translate(-23.44 -34.32)"/><path class="cls-6" d="M193.82,50.69c.07-.39.12-.82.59-.93a2.25,2.25,0,0,1,.94-.07c3.58.73,6-1,8.13-3.62,2.61-3.22,6.27-5.31,9.17-8.23a5.2,5.2,0,0,0,1.83-3,32.64,32.64,0,0,1,8.58.15c2.67.57,5.42.55,8.07,1.47,1.42.49,3,.89,4.46,1.29.17.73.26,1.58,1.38,1a1.12,1.12,0,0,1,1,.22c.17,1.59,1.34,1,2.21,1a.51.51,0,0,1,.69.12c.08.8.58.94,1.26.82a.46.46,0,0,1,.66.12c.47,1.59,2.45,1.2,3.2,2.46a4,4,0,0,1-1.59,2.26c-2.69,2.19-5.39,4.4-8,6.72a2.78,2.78,0,0,1-3.43.67,3.52,3.52,0,0,0-2.51-.51.42.42,0,0,1-.62,0,1.53,1.53,0,0,0-2.33-.81,1.8,1.8,0,0,1-1.52-.19c-.06-.65-.36-1-1.06-1l-3.1.09a1.79,1.79,0,0,1-1.14.23l-25-.07A4.25,4.25,0,0,1,193.82,50.69Z" transform="translate(-23.44 -34.32)"/><path class="cls-7" d="M169.81,277.67a4.23,4.23,0,0,0-3.14,1.5,111.72,111.72,0,0,1-8.16,7.72,4.61,4.61,0,0,1-3.44,1.35c0-.47-.12-.95-.12-1.42q0-16.1,0-32.2c0-.47.09-.94.13-1.42a3,3,0,0,0,2.71-1.12,26.2,26.2,0,0,1,5.36-4.23,19.42,19.42,0,0,0,4.7-4.64c.54-.7,1-1.47,2-1.54Q169.81,259.67,169.81,277.67Z" transform="translate(-23.44 -34.32)"/><path class="cls-17" d="M230.5,52.66a3.52,3.52,0,0,1,2.51.51,2.78,2.78,0,0,0,3.43-.67c2.58-2.32,5.28-4.52,8-6.72A4,4,0,0,0,246,43.51c-.75-1.25-2.73-.87-3.2-2.46,2.19.37,3.92,1.72,5.67,2.89,2.37,1.58,4.61,3.35,6.83,5.13A45.87,45.87,0,0,1,262,56c2.11,2.58,3.89,5.44,5.78,8.2.85,1.23.4,2.15-1.09,2.16-5.11,0-10.22,0-15.33,0A3.52,3.52,0,0,1,248.5,65c-3.28-4.12-7.64-6.83-12.09-9.44a24.64,24.64,0,0,0-4.11-1.86C231.62,53.49,230.88,53.37,230.5,52.66Z" transform="translate(-23.44 -34.32)"/><path class="cls-4" d="M201,164.93l-27.22-.07c-3.3,0-3.31,0-3.44-3.24,0-.55.06-1.13-.38-1.57q0-6.33-.06-12.66l.9-.27c.63.68.38,1.52.38,2.29,0,3.91,0,7.82,0,11.73,0,2.32,0,2.33,2.43,2.34H239c.64,0,1.28,0,1.91,0,.9,0,1,.68.91,1.37l-2.88,0-31.72-.07C205.17,164.85,203.1,164.9,201,164.93Z" transform="translate(-23.44 -34.32)"/><path class="cls-14" d="M169.81,277.67q0-18,0-36c0-5.75,0-11.49,0-17.24,0-.8-.34-1.91,1.13-1.85a1.9,1.9,0,0,0-.16,1.35c0,1-.05,1.92-.05,2.87q0,39.89,0,79.78c0,1-.08,2.07-.12,3.11l-.8-.07Q169.82,293.64,169.81,277.67Z" transform="translate(-23.44 -34.32)"/><path class="cls-4" d="M170.82,223.93a1.9,1.9,0,0,1,.16-1.35l16.62-.08c3.07,0,6.14,0,9.21.07a4.24,4.24,0,0,1,2.31.22c-.82,1.16-2,1-3.24,1h-22.2C172.73,223.85,171.78,223.91,170.82,223.93Z" transform="translate(-23.44 -34.32)"/><path class="cls-8" d="M37.95,139a1.15,1.15,0,0,1,.31,1.29c-.72,2.21-1.49,4.41-2.24,6.61a1.06,1.06,0,0,1-.86.71c-.36-1.44.56-2.65,1-3.81C36.82,142.22,36.6,140.3,37.95,139Z" transform="translate(-23.44 -34.32)"/><path class="cls-18" d="M289,204.75a1.38,1.38,0,0,1,.18,1.75c-.9,1.9-1.84,3.78-2.69,5.7-.3.68-.81.65-1.36.7.18-1.66,1.63-2.7,2.09-4.27a12.55,12.55,0,0,0,.93-2.84A1.17,1.17,0,0,1,289,204.75Z" transform="translate(-23.44 -34.32)"/><path class="cls-8" d="M65.19,105.84c-.6-1.54.54-2.78.75-4.19.15-1,.78-1.86.72-2.94-.05-.85.53-1.05,1.24-1.05.42,1.52-.79,2.65-1,4-.22,1.17-.74,2.36-1,3.59C65.82,105.66,65.48,105.72,65.19,105.84Z" transform="translate(-23.44 -34.32)"/><path class="cls-4" d="M64.06,63.52c0,.31.08.73-.08.9-1.47,1.5-2,3.52-2.93,5.3-.25.48-.38,1-1,1.16,0-.39-.14-.85,0-1.17.91-1.89,1.88-3.74,2.83-5.61C63.11,63.6,63.59,63.57,64.06,63.52Z" transform="translate(-23.44 -34.32)"/><path class="cls-4" d="M59.86,71.76c.46,1.37-.79,2.3-.9,3.56a18.45,18.45,0,0,1-.91,3A1.54,1.54,0,0,1,57,79.42a.82.82,0,0,1-.1-1.08,31.79,31.79,0,0,0,2.22-6.15C59.19,71.83,59.56,71.82,59.86,71.76Z" transform="translate(-23.44 -34.32)"/><path class="cls-18" d="M306.93,188.89c-1.3-.39-.72-1.61-.95-2.41a6.53,6.53,0,0,1,.1-4.76C307.47,184,306.93,186.46,306.93,188.89Z" transform="translate(-23.44 -34.32)"/><path class="cls-18" d="M306.12,199.42c-.66-2-.93-4,.81-5.75a21.06,21.06,0,0,1,0,3.92A2.17,2.17,0,0,1,306.12,199.42Z" transform="translate(-23.44 -34.32)"/><path class="cls-18" d="M305,175.93c-.41-.06-.92-.18-1-.57-.31-1.92-1.71-3.61-1.24-5.7.23.21.57.38.67.64A19.27,19.27,0,0,1,305,175.93Z" transform="translate(-23.44 -34.32)"/><path class="cls-4" d="M46,114a1.69,1.69,0,0,1,0,1.39,13.38,13.38,0,0,0-1.35,3.73c0,.23-.45.4-.69.6C43.89,117.36,44.74,115,46,114Z" transform="translate(-23.44 -34.32)"/><path class="cls-18" d="M296.87,151c-.22-.07-.58-.08-.64-.23a11.86,11.86,0,0,1-1.44-4.7c0-.12.19-.23.29-.35.14.07.38.11.41.2C295.92,147.6,296.86,149.16,296.87,151Z" transform="translate(-23.44 -34.32)"/><path class="cls-8" d="M35,148.59c.12.19.38.42.34.56-.42,1.39-.88,2.76-1.36,4.13-.14.41-.54.52-.94.56A11.23,11.23,0,0,1,35,148.59Z" transform="translate(-23.44 -34.32)"/><path class="cls-4" d="M42.95,123.54a13.69,13.69,0,0,1-1.81,5.32.82.82,0,0,1-.3-.84c.4-1.26.83-2.52,1.26-3.77A1,1,0,0,1,42.95,123.54Z" transform="translate(-23.44 -34.32)"/><path class="cls-17" d="M42.11,176.86c-.06-.05-.17-.11-.17-.16.22-1.87.32-3.79,2-5.1A16.07,16.07,0,0,1,42.11,176.86Z" transform="translate(-23.44 -34.32)"/><path class="cls-18" d="M291.76,141.36c.06-.72.36-1,1.09-.65a3.63,3.63,0,0,0,.92.17c.21,1.34,1.45,2.37,1.17,3.85-.61-.08-1.24-.43-1.16-1C294,142.08,292.7,141.92,291.76,141.36Z" transform="translate(-23.44 -34.32)"/><path class="cls-4" d="M50.15,102l-.52,1.85L49,104a8.88,8.88,0,0,1,1.86-5.35C51.35,99.9,50.15,100.81,50.15,102Z" transform="translate(-23.44 -34.32)"/><path class="cls-18" d="M290,181.67c.58,0,1.2.08,1.19.84,0,1,.38,2.06-.36,3A4.89,4.89,0,0,1,290,181.67Z" transform="translate(-23.44 -34.32)"/><path class="cls-17" d="M221.86,50.73l3.1-.09c.7,0,1,.36,1.06,1A5.36,5.36,0,0,1,221.86,50.73Z" transform="translate(-23.44 -34.32)"/><path class="cls-14" d="M161.13,131.64a6.57,6.57,0,0,1-3.07,3.48C158.29,133.26,159.69,132.44,161.13,131.64Z" transform="translate(-23.44 -34.32)"/><path class="cls-17" d="M40.16,185.49c-.83-1.52-.31-2.73.84-3.82A5,5,0,0,1,40.16,185.49Z" transform="translate(-23.44 -34.32)"/><path class="cls-18" d="M290.87,196.59c.7,2.1.64,2.33-.82,3.34A4.06,4.06,0,0,1,290.87,196.59Z" transform="translate(-23.44 -34.32)"/><path class="cls-4" d="M66.15,59.76a4.08,4.08,0,0,1-2,3.28A3.67,3.67,0,0,1,66.15,59.76Z" transform="translate(-23.44 -34.32)"/><path class="cls-18" d="M305.15,204.7c-.62-1.49-.52-1.82.82-2.87C306,202.87,306.36,204,305.15,204.7Z" transform="translate(-23.44 -34.32)"/><path class="cls-9" d="M226.11,184.13c.53,1.57.41,1.92-1,2.83C225.12,185.9,225.07,184.83,226.11,184.13Z" transform="translate(-23.44 -34.32)"/><path class="cls-4" d="M201.79,222.68a3.88,3.88,0,0,1,3.57-.83C204.48,223.44,203.11,223,201.79,222.68Z" transform="translate(-23.44 -34.32)"/><path class="cls-18" d="M305.95,179.77c-1.47-.57-1.53-.8-.84-2.85A3.15,3.15,0,0,1,305.95,179.77Z" transform="translate(-23.44 -34.32)"/><path class="cls-17" d="M25.08,201.83c1.33,1,1.43,1.38.82,2.86C24.71,204,25.07,202.87,25.08,201.83Z" transform="translate(-23.44 -34.32)"/><path class="cls-14" d="M156,140c.77,1.25.29,2.14-.83,2.84C155.08,141.75,155,140.69,156,140Z" transform="translate(-23.44 -34.32)"/><path class="cls-8" d="M62.88,112.28c.09-1-.79-2.49,1.22-2.61C64.25,110.8,64.21,111.84,62.88,112.28Z" transform="translate(-23.44 -34.32)"/><path class="cls-4" d="M40.07,132.66c.11.93.21,1.86-.8,2.43a1,1,0,0,0-.41.09C38.85,134.13,38.24,132.81,40.07,132.66Z" transform="translate(-23.44 -34.32)"/><path class="cls-14" d="M157.88,135.75c-.33,1.2-.13,2.7-1.74,3.21C156.46,137.75,156.72,136.51,157.88,135.75Z" transform="translate(-23.44 -34.32)"/><path class="cls-18" d="M304.18,208.54c-.6-1.52-.49-1.86.87-2.86C305.18,206.76,305.21,207.81,304.18,208.54Z" transform="translate(-23.44 -34.32)"/><path class="cls-17" d="M26,205.67c1.35,1,1.46,1.34.88,2.86A2.69,2.69,0,0,1,26,205.67Z" transform="translate(-23.44 -34.32)"/><path class="cls-18" d="M288.09,174.47c1.44.76,1.48.87.85,2.38C287.78,176.37,288.12,175.36,288.09,174.47Z" transform="translate(-23.44 -34.32)"/><path class="cls-8" d="M69,93.81c-.62-1.59-.56-1.74,1-2.38C70,92.38,70.24,93.42,69,93.81Z" transform="translate(-23.44 -34.32)"/><path class="cls-17" d="M25.91,176.91c.58,1.49.49,1.81-.82,2.85A3.14,3.14,0,0,1,25.91,176.91Z" transform="translate(-23.44 -34.32)"/><path class="cls-14" d="M173.21,125a2.82,2.82,0,0,1-3.17.88A3,3,0,0,1,173.21,125Z" transform="translate(-23.44 -34.32)"/><path class="cls-17" d="M28.21,169.63c-.15.94.7,2.36-1.19,2.46A2.55,2.55,0,0,1,28.21,169.63Z" transform="translate(-23.44 -34.32)"/><path class="cls-8" d="M38.86,135.17a1,1,0,0,1,.41-.09c-.11,1.1.51,2.49-1.2,2.93C37.68,136.89,39,136.23,38.86,135.17Z" transform="translate(-23.44 -34.32)"/><path class="cls-18" d="M291,189.83c.65,0,1.22.11,1.22,1s-.57,1-1.22,1A4.18,4.18,0,0,1,291,189.83Z" transform="translate(-23.44 -34.32)"/><path class="cls-18" d="M289.07,177.83c1.44.34,1.53.57.78,1.92C288.8,179.43,289,178.6,289.07,177.83Z" transform="translate(-23.44 -34.32)"/><path class="cls-18" d="M302.82,169.67a.94.94,0,0,1-1-1.06q0-.93,0-1.86C302.92,167.48,302.84,168.58,302.82,169.67Z" transform="translate(-23.44 -34.32)"/><path class="cls-4" d="M278.94,147.95c1.33.18,1.36,1.09,1.17,2.12C278.71,149.92,278.69,149,278.94,147.95Z" transform="translate(-23.44 -34.32)"/><path class="cls-18" d="M298,153.84c-1.57-.26-1.67-.47-.94-1.91C298.09,152.19,298,153,298,153.84Z" transform="translate(-23.44 -34.32)"/><path class="cls-4" d="M54,89.46a2.12,2.12,0,0,1-.9,2.45C52.48,90.75,52.93,90,54,89.46Z" transform="translate(-23.44 -34.32)"/><path class="cls-17" d="M40.05,191.77c-.65,0-1.23-.11-1.23-1s.58-1,1.23-1A4.16,4.16,0,0,1,40.05,191.77Z" transform="translate(-23.44 -34.32)"/><path class="cls-8" d="M68,96.7c-.69-1.38-.6-1.58.82-1.92C69,95.58,68.95,96.34,68,96.7Z" transform="translate(-23.44 -34.32)"/><path class="cls-4" d="M206.6,221.74a2.28,2.28,0,0,1,2.6-.84C208.77,222.54,207.61,221.91,206.6,221.74Z" transform="translate(-23.44 -34.32)"/><path class="cls-4" d="M282.91,156.85a6.2,6.2,0,0,1,.07,2.34,1.78,1.78,0,0,1-.88-2.47Z" transform="translate(-23.44 -34.32)"/><path class="cls-16" d="M57,130.77c-.64-1.46-.55-1.63,1-1.89A1.49,1.49,0,0,1,57,130.77Z" transform="translate(-23.44 -34.32)"/><path class="cls-4" d="M52.07,95.69c.22,1,.05,1.86-1.18,2.07C50.73,96.76,50.6,95.77,52.07,95.69Z" transform="translate(-23.44 -34.32)"/><path class="cls-4" d="M49.2,104.94a3.22,3.22,0,0,0,0,1.55L48,106.9c-.09-.83-.39-1.75.85-2Z" transform="translate(-23.44 -34.32)"/><path class="cls-18" d="M289.88,201.86c.71,1.36.62,1.57-.79,1.91C289,203,288.91,202.21,289.88,201.86Z" transform="translate(-23.44 -34.32)"/><path class="cls-4" d="M284,162.58c1.28.43.94,1.45.86,2.38C283.66,164.5,283.6,163.62,284,162.58Z" transform="translate(-23.44 -34.32)"/><path class="cls-4" d="M48.25,107.81a3.13,3.13,0,0,0,0,1.56l-1.15.41c-.09-.83-.38-1.75.85-2Z" transform="translate(-23.44 -34.32)"/><path class="cls-4" d="M171.6,143.79c.57-1,1.06-2.14,2.56-2a2.63,2.63,0,0,1-2.08,1.95Z" transform="translate(-23.44 -34.32)"/><path class="cls-17" d="M227.54,51.84a1.53,1.53,0,0,1,2.33.81A2.13,2.13,0,0,1,227.54,51.84Z" transform="translate(-23.44 -34.32)"/><path class="cls-18" d="M302.85,211.57c0-.93-.39-2.07,1.2-2.06C304.31,210.58,303.59,211.08,302.85,211.57Z" transform="translate(-23.44 -34.32)"/><path class="cls-18" d="M287.14,171.59c1,.31,1.72.77.81,1.91C287,173.16,287,172.39,287.14,171.59Z" transform="translate(-23.44 -34.32)"/><path class="cls-4" d="M55.87,83.68c.18.85.16,1.62-.84,2A1.32,1.32,0,0,1,55.87,83.68Z" transform="translate(-23.44 -34.32)"/><path class="cls-17" d="M240.19,40c-.87,0-2,.59-2.21-1A2.12,2.12,0,0,1,240.19,40Z" transform="translate(-23.44 -34.32)"/><path class="cls-4" d="M56.83,80.8c.18.86.15,1.62-.84,2A1.32,1.32,0,0,1,56.83,80.8Z" transform="translate(-23.44 -34.32)"/><path class="cls-4" d="M280.24,151l.85.18q0,.91,0,1.82C280.15,152.55,279.68,152,280.24,151Z" transform="translate(-23.44 -34.32)"/><path class="cls-4" d="M282.08,154.06l-.07,1.77c-.91-.4-1.35-1-.85-2Z" transform="translate(-23.44 -34.32)"/><path class="cls-16" d="M32,157.58c-.16.88.65,2.11-.89,2.5C31.2,159.16,31,158.15,32,157.58Z" transform="translate(-23.44 -34.32)"/><path class="cls-18" d="M299.89,160.08c-1.54-.38-.74-1.61-.89-2.49C300.07,158.14,299.84,159.16,299.89,160.08Z" transform="translate(-23.44 -34.32)"/><path class="cls-4" d="M284,160.31l-.06,1.75c-.88-.41-1.38-1-.84-2Z" transform="translate(-23.44 -34.32)"/><path class="cls-16" d="M53.16,142.78c-.71-1.38-.62-1.59.82-1.91A1.76,1.76,0,0,1,53.16,142.78Z" transform="translate(-23.44 -34.32)"/><path class="cls-17" d="M45,167.73c-.59-1.1,0-1.61,1-1.88A1.5,1.5,0,0,1,45,167.73Z" transform="translate(-23.44 -34.32)"/><path class="cls-4" d="M286,166.78l0,1.89c-1-.29-1.73-.7-.94-1.88Z" transform="translate(-23.44 -34.32)"/><path class="cls-17" d="M44,170.62c-.67-1,0-1.49.78-1.91C44.94,169.5,44.88,170.22,44,170.62Z" transform="translate(-23.44 -34.32)"/><path class="cls-16" d="M54.15,139.44c-.63-1.22-.61-1.28.8-1.92A1.58,1.58,0,0,1,54.15,139.44Z" transform="translate(-23.44 -34.32)"/><path class="cls-18" d="M286.21,168.66c1.42.4,1.5.59.8,2A2.19,2.19,0,0,1,286.21,168.66Z" transform="translate(-23.44 -34.32)"/><path class="cls-16" d="M56,133.65c-.63-1.45-.6-1.53.82-1.9C57,132.59,56.5,133.11,56,133.65Z" transform="translate(-23.44 -34.32)"/><path class="cls-4" d="M43.86,120.65c.19.84.1,1.58-.8,2A1.28,1.28,0,0,1,43.86,120.65Z" transform="translate(-23.44 -34.32)"/><path class="cls-4" d="M47,111.13c.31.92.18,1.66-.84,2C46,112.31,45.71,111.41,47,111.13Z" transform="translate(-23.44 -34.32)"/><path class="cls-17" d="M41.21,179.76c-.76-1,0-1.5.77-1.93C42,178.6,42.27,179.44,41.21,179.76Z" transform="translate(-23.44 -34.32)"/><path class="cls-8" d="M64.24,108.72c-.82-1.09,0-1.53.8-1.93C65.09,107.56,65.31,108.41,64.24,108.72Z" transform="translate(-23.44 -34.32)"/><path class="cls-4" d="M41,129.78c.16.84.17,1.62-.84,2C39.71,130.77,40.08,130.15,41,129.78Z" transform="translate(-23.44 -34.32)"/><path class="cls-4" d="M210,220.78c.53-.71,1.14-1.23,2.11-.88C211.83,221.31,210.88,221,210,220.78Z" transform="translate(-23.44 -34.32)"/><path class="cls-4" d="M53,92.81c.14.83.23,1.65-.84,2C51.71,93.81,52.11,93.2,53,92.81Z" transform="translate(-23.44 -34.32)"/><path class="cls-4" d="M55,86.57c.16.84.2,1.63-.84,2C53.61,87.56,54.08,87,55,86.57Z" transform="translate(-23.44 -34.32)"/><path class="cls-18" d="M301.83,166.32c-1.15-.54-1-1.55-.9-2.52C301.86,164.41,301.85,165.36,301.83,166.32Z" transform="translate(-23.44 -34.32)"/><path class="cls-4" d="M214.78,218.92c.24-.82.65-1.41,1.64-1.19C216.36,218.79,215.91,219.33,214.78,218.92Z" transform="translate(-23.44 -34.32)"/><path class="cls-16" d="M55.1,136.55c-.68-1,0-1.51.81-1.91A1.6,1.6,0,0,1,55.1,136.55Z" transform="translate(-23.44 -34.32)"/><path class="cls-17" d="M237,38.78c-1.12.58-1.21-.26-1.38-1C236.36,37.69,237,37.84,237,38.78Z" transform="translate(-23.44 -34.32)"/><path class="cls-18" d="M300.84,163c-1.33-.25-.83-1.27-.87-2.06A1.82,1.82,0,0,1,300.84,163Z" transform="translate(-23.44 -34.32)"/><path class="cls-18" d="M298.9,156.72c-1.3-.25-.81-1.25-.86-2C298.94,155.11,299,155.89,298.9,156.72Z" transform="translate(-23.44 -34.32)"/><path class="cls-16" d="M33,154.69c-.06.77.44,1.78-.86,2A1.76,1.76,0,0,1,33,154.69Z" transform="translate(-23.44 -34.32)"/><path class="cls-8" d="M70.07,90.64c0-.81-.49-1.83.86-2.09A1.81,1.81,0,0,1,70.07,90.64Z" transform="translate(-23.44 -34.32)"/><path class="cls-14" d="M169.36,125.94c-.3.54-.52,1.24-1.37.69A.94.94,0,0,1,169.36,125.94Z" transform="translate(-23.44 -34.32)"/><path class="cls-8" d="M47.08,109.78l1.15-.41c.29,1-.18,1.29-1.06,1.28Z" transform="translate(-23.44 -34.32)"/><path class="cls-8" d="M48.25,107.81l-.32-.05.1-.87,1.16-.41C49.43,107.32,49,107.72,48.25,107.81Z" transform="translate(-23.44 -34.32)"/><path class="cls-8" d="M49.2,104.94l-.32-.05L49,104l.67-.18c.23.16.57.27.47.65S49.54,104.85,49.2,104.94Z" transform="translate(-23.44 -34.32)"/><path class="cls-15" d="M170.83,147.12l-.9.27c-.08-.75-.28-1.56.84-1.72Z" transform="translate(-23.44 -34.32)"/><path class="cls-17" d="M26.82,173.58c0,.57.1,1.21-.7,1.38A1,1,0,0,1,26.82,173.58Z" transform="translate(-23.44 -34.32)"/><path class="cls-18" d="M282.91,156.85l-.81-.13,0-1c.44,0,1-.14,1.22.38C283.52,156.5,283.16,156.68,282.91,156.85Z" transform="translate(-23.44 -34.32)"/><path class="cls-4" d="M170.91,145.74l-.09-1,1.2-.19C172.29,145.53,171.6,145.63,170.91,145.74Z" transform="translate(-23.44 -34.32)"/><path class="cls-14" d="M172,144.54l-1.2.19c0-.54.16-.93.79-.94h.48Z" transform="translate(-23.44 -34.32)"/><path class="cls-17" d="M70.26,234.89c-.7.12-1.18-.08-1.23-.87C69.86,233.71,70,234.35,70.26,234.89Z" transform="translate(-23.44 -34.32)"/><path class="cls-14" d="M167,127c-.07.79-.51,1-1.24.83C166.06,127.36,166.17,126.63,167,127Z" transform="translate(-23.44 -34.32)"/><path class="cls-18" d="M286,166.78h-.92v-1C285.62,166,286.65,165.56,286,166.78Z" transform="translate(-23.44 -34.32)"/><path class="cls-18" d="M282.08,154.06l-.92-.22,0-1C282,152.93,282.18,153.37,282.08,154.06Z" transform="translate(-23.44 -34.32)"/><path class="cls-18" d="M284,160.31l-.91-.23,0-1C283.88,159.17,284.11,159.62,284,160.31Z" transform="translate(-23.44 -34.32)"/><path class="cls-4" d="M212.81,219.76a.94.94,0,0,1,1.19-.63C213.92,219.93,213.5,220.1,212.81,219.76Z" transform="translate(-23.44 -34.32)"/><path class="cls-14" d="M165,128a.79.79,0,0,1-.9.92C164.27,128.42,164.37,127.92,165,128Z" transform="translate(-23.44 -34.32)"/><path class="cls-14" d="M92.05,250.81c-.57,0-.92-.24-.94-.85C91.79,249.85,91.91,250.34,92.05,250.81Z" transform="translate(-23.44 -34.32)"/><path class="cls-14" d="M93.13,251.72a.86.86,0,0,1-1.06-.9C92.75,250.74,93.07,251.08,93.13,251.72Z" transform="translate(-23.44 -34.32)"/><path class="cls-14" d="M96,253.63a.83.83,0,0,1-1-.89C95.6,252.68,96,252.93,96,253.63Z" transform="translate(-23.44 -34.32)"/><path class="cls-9" d="M83.81,263.8a.87.87,0,0,1,1.07.91A.87.87,0,0,1,83.81,263.8Z" transform="translate(-23.44 -34.32)"/><path class="cls-17" d="M242.14,40.94c-.68.12-1.18,0-1.26-.82A1.26,1.26,0,0,1,242.14,40.94Z" transform="translate(-23.44 -34.32)"/><path class="cls-17" d="M24.53,196.08c.69.14,1,.39.3,1A.76.76,0,0,1,24.53,196.08Z" transform="translate(-23.44 -34.32)"/><path class="cls-3" d="M1140,173q0-27.82,0-55.64a15,15,0,0,0,0-1.68c-.12-1,.42-1.47,1.33-1.61,1.89-.29,3.78-.66,5.69-.85,12.38-1.23,24.73-1.46,36.91,1.69,8.81,2.28,16.74,6.21,23.33,12.61,7.49,7.28,11.77,16.28,13.69,26.39a83.62,83.62,0,0,1-1.58,38.93c-5.85,20.59-19.61,32.89-40.28,37.76-8.72,2.06-17.57,2.17-26.45,2-3.36-.07-6.71-.29-10-.61-2.57-.25-2.58-.28-2.58-2.87Q1140,201.1,1140,173Z" transform="translate(-23.44 -34.32)"/><path class="cls-3" d="M1021.71,140.74c0-8.4,0-16.79,0-25.19,0-1.33.29-2,1.73-2.24,10.66-1.65,21.29-2.23,31.85.67a29.91,29.91,0,0,1,7.05,2.94c6.92,4,10.75,10,11.88,17.88.92,6.43.22,12.62-2.94,18.36-4.18,7.58-11,11.55-19.15,13.6a47.44,47.44,0,0,1-11.41,1.19c-5.6,0-11.19,0-16.79,0-2.17,0-2.18,0-2.19-2.27Q1021.7,153.22,1021.71,140.74Z" transform="translate(-23.44 -34.32)"/></g></svg>