<?xml version="1.0" encoding="utf-8"?>
<!-- Generator: Adobe Illustrator 16.0.0, SVG Export Plug-In . SVG Version: 6.00 Build 0)  -->
<!DOCTYPE svg PUBLIC "-//W3C//DTD SVG 1.1//EN" "http://www.w3.org/Graphics/SVG/1.1/DTD/svg11.dtd">
<svg version="1.1" id="Layer_1" xmlns="http://www.w3.org/2000/svg" xmlns:xlink="http://www.w3.org/1999/xlink" x="0px" y="0px"
	 width="947.49px" height="473.745px" viewBox="0 0 947.49 473.745" enable-background="new 0 0 947.49 473.745"
	 xml:space="preserve">
<rect x="270.659" y="406.067" opacity="0.15" fill="#FFFFFF" width="67.678" height="67.678"/>
<rect x="473.857" y="135.355" opacity="0.15" fill="#C2BEC6" width="67.678" height="67.678"/>
<rect x="541.535" y="135.355" opacity="0.15" fill="#FFFFFF" width="67.679" height="67.678"/>
<rect x="609.214" y="135.355" opacity="0.15" fill="#ECF5E4" width="67.678" height="67.678"/>
<rect x="676.892" y="135.355" opacity="0.15" fill="#FFD974" width="67.678" height="67.678"/>
<rect x="744.57" y="135.355" opacity="0.15" fill="#FFFFFF" width="67.678" height="67.678"/>
<rect x="879.813" opacity="0.15" fill="#FABFBA" width="67.678" height="67.678"/>
<rect x="879.925" y="135.355" opacity="0.15" fill="#FFFFFF" width="67.678" height="67.678"/>
<rect x="473.857" y="203.033" opacity="0.15" fill="#FABFBA" width="67.678" height="67.678"/>
<rect x="541.535" y="203.033" opacity="0.15" fill="#D5EBD6" width="67.679" height="67.678"/>
<rect x="609.214" y="203.033" opacity="0.15" fill="#FFF48E" width="67.678" height="67.678"/>
<rect x="676.892" y="203.033" opacity="0.15" fill="#C2BEC6" width="67.678" height="67.678"/>
<rect x="744.57" y="203.033" opacity="0.15" fill="#FFD974" width="67.678" height="67.678"/>
<rect x="812.248" y="203.033" opacity="0.15" fill="#FFF48E" width="67.678" height="67.678"/>
<rect x="879.925" y="203.033" opacity="0.15" fill="#D5EBD6" width="67.678" height="67.678"/>
<rect x="541.535" y="270.711" opacity="0.15" fill="#FFD974" width="67.679" height="67.678"/>
<rect x="609.214" y="270.711" opacity="0.15" fill="#D5EBD6" width="67.678" height="67.678"/>
<rect x="676.892" y="270.711" opacity="0.15" fill="#FFF48E" width="67.678" height="67.678"/>
<rect x="744.57" y="270.711" opacity="0.15" fill="#C2BEC6" width="67.678" height="67.678"/>
<rect x="812.248" y="270.711" opacity="0.15" fill="#ECF5E4" width="67.678" height="67.678"/>
<rect x="879.925" y="270.711" opacity="0.15" fill="#FFFFFF" width="67.678" height="67.678"/>
<rect x="474.084" y="338.389" opacity="0.15" fill="#D5EBD6" width="67.678" height="67.679"/>
<rect x="541.535" y="338.389" opacity="0.15" fill="#ECF5E4" width="67.679" height="67.679"/>
<rect x="609.214" y="338.389" opacity="0.15" fill="#FFFFFF" width="67.678" height="67.679"/>
<rect x="676.892" y="338.389" opacity="0.15" fill="#D1EDF9" width="67.678" height="67.679"/>
<rect x="744.57" y="338.389" opacity="0.15" fill="#FFFFFF" width="67.678" height="67.679"/>
<rect x="812.248" y="338.389" opacity="0.15" fill="#FFFFFF" width="67.678" height="67.679"/>
<rect x="879.925" y="338.389" opacity="0.15" fill="#FABFBA" width="67.678" height="67.679"/>
<rect x="473.745" opacity="0.15" fill="#FFFFFF" width="67.678" height="67.678"/>
<rect x="541.423" opacity="0.15" fill="#ECF5E4" width="67.678" height="67.678"/>
<rect x="609.101" opacity="0.15" fill="#FFFFFF" width="67.678" height="67.678"/>
<rect x="676.778" opacity="0.15" fill="#C2BEC6" width="67.678" height="67.678"/>
<rect x="744.458" opacity="0.15" fill="#FFFFFF" width="67.678" height="67.678"/>
<rect x="812.136" opacity="0.15" fill="#D5EBD6" width="67.678" height="67.678"/>
<rect x="812.248" y="134.932" opacity="0.15" fill="#BDD1ED" width="67.678" height="67.678"/>
<rect x="473.745" y="67.678" opacity="0.15" fill="#ECF5E4" width="67.678" height="67.678"/>
<rect x="541.423" y="67.678" opacity="0.15" fill="#FABFBA" width="67.678" height="67.678"/>
<rect x="609.101" y="67.678" opacity="0.15" fill="#FFD974" width="67.678" height="67.678"/>
<rect x="676.778" y="67.678" opacity="0.15" fill="#FFFFFF" width="67.678" height="67.678"/>
<rect x="744.458" y="67.678" opacity="0.15" fill="#FABFBA" width="67.678" height="67.678"/>
<rect x="812.136" y="67.678" opacity="0.15" fill="#FFFFFF" width="67.678" height="67.678"/>
<rect x="879.813" y="67.678" opacity="0.15" fill="#FFF48E" width="67.678" height="67.678"/>
<rect x="0.197" y="135.356" opacity="0.15" fill="#ECF5E4" width="67.678" height="67.678"/>
<rect x="67.875" y="135.356" opacity="0.15" fill="#FFFFFF" width="67.678" height="67.678"/>
<rect x="135.552" y="135.356" opacity="0.15" fill="#ECF5E4" width="67.678" height="67.678"/>
<rect x="203.23" y="135.356" opacity="0.15" fill="#FABFBA" width="67.678" height="67.678"/>
<rect x="270.909" y="135.356" opacity="0.15" fill="#FFD974" width="67.678" height="67.678"/>
<rect x="338.587" y="135.356" opacity="0.15" fill="#FABFBA" width="67.678" height="67.678"/>
<rect x="406.264" y="135.356" opacity="0.15" fill="#FFFFFF" width="67.678" height="67.678"/>
<rect x="0.197" y="203.034" opacity="0.15" fill="#FFF48E" width="67.678" height="67.678"/>
<rect x="67.875" y="203.034" opacity="0.15" fill="#D5EBD6" width="67.678" height="67.678"/>
<rect x="135.552" y="203.034" opacity="0.15" fill="#ECF5E4" width="67.678" height="67.678"/>
<rect x="203.23" y="203.034" opacity="0.15" fill="#C2BEC6" width="67.678" height="67.678"/>
<rect x="270.909" y="203.034" opacity="0.15" fill="#FFFFFF" width="67.678" height="67.678"/>
<rect x="338.587" y="203.034" opacity="0.15" fill="#FFF48E" width="67.678" height="67.678"/>
<rect x="406.264" y="203.034" opacity="0.15" fill="#FFD974" width="67.678" height="67.678"/>
<rect x="67.875" y="270.711" opacity="0.15" fill="#C2BEC6" width="67.678" height="67.677"/>
<rect x="135.552" y="270.711" opacity="0.15" fill="#D5EBD6" width="67.678" height="67.677"/>
<rect x="203.23" y="270.711" opacity="0.15" fill="#FFF48E" width="67.678" height="67.677"/>
<rect x="270.909" y="270.711" opacity="0.15" fill="#C2BEC6" width="67.678" height="67.677"/>
<rect x="338.587" y="270.711" opacity="0.15" fill="#ECF5E4" width="67.678" height="67.677"/>
<rect x="406.264" y="270.711" opacity="0.15" fill="#FFFFFF" width="67.678" height="67.677"/>
<rect x="0.422" y="338.389" opacity="0.15" fill="#FFF48E" width="67.678" height="67.679"/>
<rect x="67.875" y="338.389" opacity="0.15" fill="#ECF5E4" width="67.678" height="67.679"/>
<rect x="135.552" y="338.389" opacity="0.15" fill="#FFFFFF" width="67.678" height="67.679"/>
<rect x="203.23" y="338.389" opacity="0.15" fill="#FFD974" width="67.678" height="67.679"/>
<rect x="270.909" y="338.389" opacity="0.15" fill="#FFFFFF" width="67.678" height="67.679"/>
<rect x="338.587" y="338.389" opacity="0.15" fill="#FFFFFF" width="67.678" height="67.679"/>
<rect x="406.264" y="338.389" opacity="0.15" fill="#FABFBA" width="67.678" height="67.679"/>
<rect x="0.084" opacity="0.15" fill="#FFFFFF" width="67.678" height="67.678"/>
<rect x="67.762" opacity="0.15" fill="#ECF5E4" width="67.678" height="67.678"/>
<rect x="135.44" opacity="0.15" fill="#FFFFFF" width="67.678" height="67.678"/>
<rect x="203.118" opacity="0.15" fill="#FFFFFF" width="67.678" height="67.678"/>
<rect x="270.796" opacity="0.15" fill="#FFFFFF" width="67.678" height="67.678"/>
<rect x="338.474" opacity="0.15" fill="#D5EBD6" width="67.678" height="67.678"/>
<rect x="406.151" opacity="0.15" fill="#FFFFFF" width="67.678" height="67.678"/>
<rect x="0.084" y="67.678" opacity="0.15" fill="#ECF5E4" width="67.678" height="67.678"/>
<rect x="67.762" y="67.678" opacity="0.15" fill="#FABFBA" width="67.678" height="67.678"/>
<rect x="135.44" y="67.678" opacity="0.15" fill="#ECF5E4" width="67.678" height="67.678"/>
<rect x="203.118" y="67.678" opacity="0.15" fill="#FFFFFF" width="67.678" height="67.678"/>
<rect x="270.796" y="67.678" opacity="0.15" fill="#FABFBA" width="67.678" height="67.678"/>
<rect x="338.474" y="67.678" opacity="0.15" fill="#FFFFFF" width="67.678" height="67.678"/>
<rect x="406.151" y="67.678" opacity="0.15" fill="#BFBFBF" width="67.678" height="67.678"/>
<rect x="-0.054" y="406.067" opacity="0.15" fill="#FFFFFF" width="67.678" height="67.678"/>
<rect x="67.624" y="406.067" opacity="0.15" fill="#FFD974" width="67.678" height="67.678"/>
<rect x="135.301" y="406.067" opacity="0.15" fill="#FFFFFF" width="67.678" height="67.678"/>
<rect x="202.979" y="406.067" opacity="0.15" fill="#D5EBD6" width="67.678" height="67.678"/>
<rect x="338.336" y="406.067" opacity="0.15" fill="#D5EBD6" width="67.678" height="67.678"/>
<rect x="406.013" y="406.067" opacity="0.15" fill="#FFFFFF" width="67.678" height="67.678"/>
<rect x="473.808" y="406.067" opacity="0.15" fill="#FFFFFF" width="67.678" height="67.678"/>
<rect x="541.485" y="406.067" opacity="0.15" fill="#FFF48E" width="67.678" height="67.678"/>
<rect x="609.163" y="406.067" opacity="0.15" fill="#FFFFFF" width="67.678" height="67.678"/>
<rect x="676.841" y="406.067" opacity="0.15" fill="#D5EBD6" width="67.678" height="67.678"/>
<rect x="744.521" y="406.067" opacity="0.15" fill="#FFFFFF" width="67.678" height="67.678"/>
<rect x="812.198" y="406.067" opacity="0.15" fill="#D5EBD6" width="67.678" height="67.678"/>
<rect x="879.875" y="406.067" opacity="0.15" fill="#FFFFFF" width="67.678" height="67.678"/>
<g opacity="0.3">
	<g>
		<path fill="#FFFFFF" d="M744.458,338.368h67.678v67.678h-67.678V338.368z"/>
		<path fill="#323330" d="M806.597,389.904c-0.496-3.087-2.51-5.68-8.473-8.099c-2.072-0.952-4.381-1.634-5.069-3.204
			c-0.244-0.912-0.276-1.428-0.122-1.98c0.443-1.795,2.586-2.354,4.284-1.84c1.093,0.367,2.129,1.209,2.753,2.554
			c2.921-1.892,2.916-1.879,4.954-3.179c-0.747-1.157-1.146-1.691-1.634-2.187c-1.756-1.962-4.15-2.974-7.979-2.896l-1.992,0.258
			c-1.911,0.482-3.732,1.486-4.799,2.83c-3.205,3.636-2.291,9.998,1.607,12.616c3.84,2.883,9.482,3.538,10.203,6.233
			c0.701,3.3-2.424,4.369-5.533,3.99c-2.289-0.478-3.563-1.641-4.94-3.758c-2.534,1.467-2.534,1.467-5.14,2.965
			c0.617,1.352,1.268,1.963,2.303,3.133c4.902,4.973,17.17,4.729,19.371-2.798C806.481,394.285,807.073,392.563,806.597,389.904
			L806.597,389.904z M781.249,369.473h-6.33l-0.025,16.366c0,3.48,0.18,6.671-0.387,7.649c-0.926,1.924-3.326,1.685-4.419,1.313
			c-1.114-0.547-1.68-1.326-2.335-2.426c-0.18-0.314-0.315-0.561-0.361-0.578l-5.146,3.152c0.855,1.756,2.117,3.279,3.731,4.271
			c2.413,1.447,5.655,1.891,9.045,1.112c2.207-0.643,4.111-1.974,5.108-4.001c1.441-2.658,1.133-5.873,1.119-9.431
			C781.281,381.098,781.249,375.295,781.249,369.473z"/>
	</g>
	<g>
		<path fill="#83CD29" d="M731.981,357.688l-19.02-11.045c-1.199-0.683-2.762-0.683-3.971,0l-19.222,11.045
			c-1.237,0.711-2.114,2.049-2.114,3.481v22.058c0,1.432,0.899,2.77,2.137,3.486l5.079,2.885c2.427,1.195,3.285,1.195,4.39,1.195
			c3.594,0,5.647-2.174,5.647-5.965v-21.775c0-0.309-0.16-0.766-0.462-0.766h-2.426c-0.307,0-0.994,0.457-0.994,0.766v21.775
			c0,1.68-1.52,3.354-4.361,1.932l-5.247-3.023c-0.183-0.1-0.312-0.3-0.312-0.51v-22.058c0-0.208,0.239-0.417,0.424-0.523
			l19.16-11.024c0.178-0.102,0.441-0.102,0.62,0l18.927,11.021c0.182,0.109,0.117,0.313,0.117,0.526v22.058
			c0,0.21,0.078,0.415-0.1,0.517l-19.016,11.031c-0.162,0.098-0.365,0.098-0.543,0l-4.877-2.911
			c-0.146-0.085-0.322-0.116-0.463-0.037c-1.357,0.77-1.607,0.871-2.879,1.313c-0.314,0.109-0.775,0.299,0.176,0.832l6.383,3.775
			c0.611,0.354,1.306,0.537,2.004,0.537c0.709,0,1.402-0.184,2.014-0.537l18.928-11.033c1.237-0.722,1.824-2.055,1.824-3.486
			v-22.058C733.806,359.736,733.219,358.402,731.981,357.688L731.981,357.688z M716.946,379.73c-5.059,0-6.172-1.395-6.543-3.91
			c-0.044-0.27-0.273-0.594-0.549-0.594h-2.473c-0.305,0-0.551,0.371-0.551,0.676c0,3.22,1.75,7.121,10.115,7.121
			c6.055,0,9.526-2.354,9.526-6.518c0-4.128-2.789-5.211-8.661-5.988c-5.936-0.784-6.539-1.181-6.539-2.571
			c0-1.146,0.512-2.675,4.906-2.675c3.927,0,5.374,0.842,5.97,3.489c0.052,0.249,0.278,0.427,0.534,0.427h2.482
			c0.152,0,0.299-0.061,0.406-0.17c0.103-0.117,0.158-0.266,0.144-0.423c-0.384-4.558-3.412-6.683-9.536-6.683
			c-5.448,0-8.698,2.301-8.698,6.158c0,4.182,3.233,5.338,8.463,5.855c6.257,0.613,6.743,1.527,6.743,2.758
			C722.687,378.82,720.97,379.73,716.946,379.73L716.946,379.73z"/>
	</g>
	<g>
		<path id="original-wordmark" d="M749.081,227.668h58.432v20.598h-29.216v3.435H765.31v-3.435h-16.229V227.668z M752.328,244.835
			h6.493v-10.301h3.246v10.301h3.248v-13.731h-12.987V244.835z M768.558,231.104v17.162h6.492v-3.431h6.494v-13.731H768.558z
			 M775.05,234.54h3.247v6.86h-3.247V234.54z M784.79,231.104v13.731h6.494v-10.301h3.246v10.301h3.247v-10.301h3.247v10.301h3.246
			v-13.731H784.79z"/>
	</g>
	<g>
		
			<linearGradient id="SVGID_1_" gradientUnits="userSpaceOnUse" x1="379.5171" y1="-582.1987" x2="391.4645" y2="-571.9196" gradientTransform="matrix(2.6183 0 0 2.6416 -109.6406 1748.0781)">
			<stop  offset="0" style="stop-color:#5A9FD4"/>
			<stop  offset="1" style="stop-color:#306998"/>
		</linearGradient>
		<path fill="url(#SVGID_1_)" d="M913.426,208.495c-2.337,0.012-4.566,0.21-6.53,0.558c-5.782,1.021-6.831,3.159-6.831,7.104v5.207
			h13.664v1.736h-18.793c-3.971,0-7.449,2.386-8.537,6.929c-1.254,5.205-1.31,8.453,0,13.887c0.972,4.044,3.291,6.927,7.263,6.927
			h4.698V244.6c0-4.511,3.902-8.489,8.537-8.489h13.648c3.799,0,6.832-3.129,6.832-6.944v-13.011c0-3.704-3.125-6.485-6.832-7.104
			C918.196,208.662,915.762,208.484,913.426,208.495L913.426,208.495z M906.035,212.683c1.412,0,2.564,1.172,2.564,2.613
			c0,1.435-1.152,2.595-2.564,2.595c-1.416,0-2.563-1.161-2.563-2.595C903.471,213.855,904.619,212.683,906.035,212.683z"/>
		
			<linearGradient id="SVGID_2_" gradientUnits="userSpaceOnUse" x1="396.0767" y1="-565.6978" x2="391.8105" y2="-571.7336" gradientTransform="matrix(2.6183 0 0 2.6416 -109.6406 1748.0781)">
			<stop  offset="0" style="stop-color:#FFD43B"/>
			<stop  offset="1" style="stop-color:#FFE873"/>
		</linearGradient>
		<path fill="url(#SVGID_2_)" d="M929.08,223.099v6.068c0,4.704-3.988,8.663-8.535,8.663h-13.649c-3.738,0-6.831,3.2-6.831,6.944
			v13.012c0,3.703,3.219,5.881,6.831,6.943c4.325,1.271,8.474,1.501,13.649,0c3.439-0.997,6.831-3,6.831-6.943v-5.208h-13.647
			v-1.737h20.48c3.971,0,5.451-2.77,6.833-6.927c1.427-4.28,1.365-8.397,0-13.887c-0.981-3.954-2.855-6.929-6.833-6.929
			L929.08,223.099L929.08,223.099z M921.404,256.051c1.416,0,2.563,1.16,2.563,2.596c0,1.44-1.147,2.611-2.563,2.611
			c-1.412,0-2.564-1.171-2.564-2.611C918.84,257.21,919.992,256.051,921.404,256.051z"/>
	</g>
	<g>
		<path fill="#D26383" d="M665.102,428.583l-20.746-11.941c-0.344-0.215-0.816-0.301-1.332-0.301s-0.988,0.129-1.332,0.301
			l-20.617,11.984c-0.73,0.43-1.244,1.503-1.244,2.318v23.926c0,0.473,0.084,1.031,0.428,1.504l45.875-26.631
			C665.875,429.228,665.488,428.84,665.102,428.583L665.102,428.583z"/>
		<path fill="#9C033A" d="M620.129,456.331c0.215,0.344,0.516,0.644,0.816,0.816l20.703,11.983c0.346,0.215,0.816,0.301,1.332,0.301
			s0.988-0.13,1.332-0.301l20.617-11.983c0.73-0.43,1.246-1.504,1.246-2.32v-23.925c0-0.388-0.043-0.816-0.258-1.203
			L620.129,456.331L620.129,456.331z"/>
		<path fill="#FFFFFF" d="M652.172,448.084c-1.803,3.179-5.24,5.326-9.148,5.326c-5.799,0-10.523-4.726-10.523-10.524
			s4.725-10.523,10.523-10.523c3.908,0,7.346,2.147,9.148,5.369l5.584-3.222c-2.92-5.11-8.418-8.591-14.732-8.591
			c-9.363,0-16.967,7.604-16.967,16.967c0,9.364,7.604,16.967,16.967,16.967c6.271,0,11.77-3.437,14.691-8.505L652.172,448.084z"/>
		<g>
			<path fill="#FFFFFF" d="M650.799,441.94h2.234v-2.276h1.889v2.276h2.277v1.891h-2.277v2.233h-1.889v-2.233h-2.234V441.94
				L650.799,441.94z M658.746,441.94h2.232v-2.276h1.891v2.276h2.275v1.891h-2.275v2.233h-1.891v-2.233h-2.232V441.94
				L658.746,441.94z"/>
		</g>
	</g>
	<g>
		<path fill="#181616" d="M778.41,72.276c-15.876,0-28.75,12.871-28.75,28.75c0,12.702,8.238,23.478,19.66,27.279
			c1.438,0.267,1.965-0.623,1.965-1.383c0-0.686-0.027-2.95-0.039-5.352c-7.998,1.738-9.686-3.393-9.686-3.393
			c-1.309-3.323-3.192-4.207-3.192-4.207c-2.608-1.783,0.196-1.746,0.196-1.746c2.887,0.201,4.407,2.961,4.407,2.961
			c2.564,4.395,6.726,3.125,8.366,2.391c0.258-1.858,1.003-3.127,1.825-3.844c-6.386-0.727-13.099-3.192-13.099-14.208
			c0-3.139,1.123-5.704,2.963-7.717c-0.299-0.724-1.283-3.647,0.277-7.608c0,0,2.414-0.772,7.908,2.947
			c2.293-0.638,4.754-0.958,7.197-0.969c2.441,0.011,4.902,0.33,7.201,0.968c5.487-3.72,7.898-2.946,7.898-2.946
			c1.564,3.959,0.58,6.883,0.281,7.607c1.844,2.014,2.959,4.578,2.959,7.717c0,11.041-6.725,13.473-13.127,14.185
			c1.031,0.893,1.951,2.642,1.951,5.323c0,3.848-0.034,6.943-0.034,7.891c0,0.765,0.519,1.661,1.976,1.379
			c11.416-3.806,19.644-14.578,19.644-27.275C807.158,85.147,794.287,72.277,778.41,72.276L778.41,72.276z"/>
		<path fill="#181616" d="M760.549,113.554c-0.063,0.143-0.287,0.186-0.492,0.088c-0.209-0.094-0.326-0.287-0.258-0.432
			c0.061-0.146,0.286-0.188,0.494-0.09C760.502,113.214,760.621,113.411,760.549,113.554L760.549,113.554z M761.714,114.853
			c-0.136,0.127-0.404,0.068-0.587-0.133c-0.188-0.2-0.224-0.468-0.084-0.598c0.143-0.126,0.402-0.066,0.59,0.134
			C761.82,114.458,761.857,114.724,761.714,114.853L761.714,114.853z M762.848,116.509c-0.176,0.122-0.465,0.008-0.643-0.248
			c-0.176-0.257-0.176-0.563,0.006-0.686c0.176-0.123,0.461-0.012,0.642,0.241c0.175,0.259,0.175,0.566-0.005,0.69V116.509z
			 M764.4,118.108c-0.157,0.174-0.494,0.127-0.738-0.11c-0.252-0.231-0.321-0.562-0.164-0.734c0.16-0.175,0.498-0.126,0.744,0.109
			C764.494,117.604,764.569,117.935,764.4,118.108L764.4,118.108z M766.543,119.036c-0.07,0.226-0.393,0.328-0.719,0.232
			c-0.326-0.099-0.539-0.362-0.472-0.59c0.067-0.227,0.392-0.333,0.72-0.23C766.397,118.546,766.61,118.808,766.543,119.036z
			 M768.896,119.208c0.008,0.238-0.268,0.434-0.61,0.438c-0.345,0.009-0.622-0.185-0.626-0.417c0-0.24,0.271-0.434,0.615-0.439
			C768.615,118.783,768.896,118.974,768.896,119.208L768.896,119.208z M771.085,118.837c0.04,0.23-0.196,0.469-0.536,0.531
			c-0.334,0.062-0.643-0.082-0.686-0.311c-0.041-0.237,0.201-0.475,0.533-0.536C770.736,118.463,771.042,118.603,771.085,118.837
			L771.085,118.837z"/>
	</g>
	<g>
		<path fill="#E44D26" d="M829.567,52.04l-3.651-40.95h40.118l-3.655,40.943l-16.429,4.555L829.567,52.04z"/>
		<path fill="#F16529" d="M845.976,53.106l13.275-3.68l3.123-34.988h-16.398V53.106z"/>
		<path fill="#EBEBEB" d="M845.976,29.625h-6.646l-0.459-5.143h7.105V19.46h-12.594l0.12,1.347l1.233,13.84h11.24V29.625z
			 M845.976,42.669l-0.022,0.006l-5.593-1.511l-0.357-4.005h-5.043l0.704,7.886l10.288,2.856l0.023-0.007V42.669z"/>
		<path fill="#FFFFFF" d="M845.958,29.625v5.022h6.184l-0.582,6.514l-5.602,1.512v5.226l10.297-2.854l0.074-0.849l1.18-13.223
			l0.123-1.349h-1.354H845.958z M845.958,19.46v5.022h12.131l0.102-1.128l0.229-2.546l0.12-1.347H845.958z"/>
	</g>
	<g>
		<path fill="#439934" d="M924.325,24.188c0.732,2.115,1.258,4.274,1.432,6.512c0.215,2.776,0.117,5.533-0.469,8.264
			c-0.016,0.075-0.049,0.146-0.074,0.219c-0.184,0-0.371-0.022-0.551,0.005c-1.516,0.238-3.031,0.485-4.547,0.73
			c-1.566,0.253-3.135,0.498-4.697,0.768c-0.555,0.096-1.238-0.018-1.463,0.748c-0.006,0.021-0.07,0.024-0.107,0.037l0.076-4.579
			c-0.025-3.682-0.051-7.365-0.078-11.047l0.73-0.125c1.193-0.195,2.387-0.393,3.582-0.583c1.424-0.227,2.852-0.446,4.277-0.667
			C923.065,24.371,923.696,24.281,924.325,24.188L924.325,24.188z"/>
		<path fill="#45A538" d="M912.343,54.817c-0.771-0.662-1.566-1.295-2.305-1.991c-3.971-3.746-6.875-8.153-8.305-13.467
			c-0.395-1.462-0.658-2.949-0.742-4.46c-0.059-1.058-0.145-2.125-0.07-3.177c0.199-2.799,0.604-5.57,1.424-8.266l0.047-0.063
			c0.078,0.106,0.193,0.2,0.234,0.32c0.801,2.359,1.596,4.721,2.387,7.083c2.486,7.425,4.971,14.851,7.461,22.275
			c0.049,0.144,0.174,0.263,0.266,0.394L912.343,54.817L912.343,54.817z"/>
		<path fill="#46A037" d="M924.325,24.188c-0.629,0.094-1.26,0.184-1.889,0.281c-1.426,0.221-2.854,0.44-4.279,0.667
			c-1.193,0.19-2.387,0.388-3.58,0.583l-0.73,0.125l-0.006-0.476c-0.023-0.392-0.064-0.782-0.068-1.173
			c-0.033-2.496-0.053-4.991-0.082-7.486c-0.02-1.562-0.049-3.124-0.08-4.685c-0.02-0.97-0.041-1.941-0.084-2.909
			c-0.025-0.521-0.107-1.039-0.143-1.56c-0.02-0.299,0.008-0.601,0.014-0.901c0.371,0.721,0.736,1.447,1.119,2.163
			c0.604,1.131,1.566,1.965,2.434,2.875C920.378,15.286,922.81,19.466,924.325,24.188L924.325,24.188z"/>
		<path fill="#409433" d="M913.849,41.47c0.037-0.012,0.102-0.015,0.107-0.036c0.223-0.766,0.908-0.652,1.463-0.748
			c1.563-0.271,3.131-0.515,4.697-0.768c1.516-0.246,3.029-0.493,4.547-0.731c0.18-0.028,0.367-0.005,0.551-0.005
			c-0.285,1.011-0.508,2.044-0.867,3.027c-0.408,1.116-0.902,2.205-1.426,3.272c-0.783,1.596-1.76,3.083-2.895,4.447
			c-0.873,1.051-1.848,2.023-2.824,2.983c-0.539,0.53-1.176,0.963-1.77,1.44l-0.152-0.105l-0.553-0.473l-0.572-1.254
			c-0.395-1.468-0.602-2.962-0.635-4.481l0.01-0.256l0.078-1.105c0.025-0.377,0.061-0.754,0.076-1.132
			C913.743,44.187,913.794,42.828,913.849,41.47L913.849,41.47z"/>
		<path fill="#4FAA41" d="M913.849,41.47c-0.055,1.358-0.105,2.717-0.162,4.076c-0.016,0.378-0.051,0.755-0.076,1.132l-0.35,0.132
			c-0.773-2.278-1.549-4.533-2.305-6.793c-1.254-3.739-2.492-7.485-3.742-11.225c-1.01-3.019-2.027-6.035-3.051-9.05
			c-0.049-0.141-0.186-0.251-0.281-0.376l2.229-4.101c0.078,0.133,0.178,0.257,0.227,0.4c1.031,3.053,2.063,6.107,3.084,9.164
			c1.328,3.976,2.648,7.956,3.975,11.933c0.053,0.159,0.141,0.306,0.225,0.484l0.305-0.355
			C913.899,38.417,913.874,39.943,913.849,41.47L913.849,41.47z"/>
		<path fill="#4AA73C" d="M903.882,19.366c0.096,0.125,0.232,0.235,0.281,0.376c1.023,3.015,2.041,6.03,3.051,9.05
			c1.252,3.74,2.488,7.485,3.742,11.225c0.756,2.26,1.531,4.515,2.305,6.793l0.35-0.132l-0.078,1.105l-0.07,0.255
			c-0.121,1.21-0.225,2.422-0.371,3.629c-0.074,0.604-0.232,1.199-0.352,1.798c-0.09-0.131-0.217-0.25-0.266-0.395
			c-2.49-7.424-4.973-14.85-7.459-22.274c-0.793-2.363-1.588-4.724-2.389-7.084c-0.041-0.12-0.154-0.213-0.234-0.32
			C902.888,22.05,903.384,20.708,903.882,19.366L903.882,19.366z"/>
		<path fill="#57AE47" d="M913.925,36.892l-0.307,0.355c-0.082-0.178-0.17-0.325-0.223-0.484c-1.326-3.977-2.648-7.957-3.977-11.933
			c-1.021-3.057-2.051-6.111-3.082-9.165c-0.049-0.143-0.148-0.268-0.227-0.4l2.758-3.628c0.088,0.116,0.211,0.219,0.256,0.35
			c0.768,2.242,1.525,4.486,2.279,6.732c0.705,2.097,1.398,4.197,2.111,6.292c0.049,0.14,0.215,0.24,0.326,0.358l0.006,0.476
			C913.872,29.526,913.899,33.209,913.925,36.892z"/>
		<path fill="#60B24F" d="M913.841,25.368c-0.109-0.118-0.275-0.218-0.324-0.358c-0.713-2.094-1.408-4.195-2.111-6.292
			c-0.754-2.245-1.514-4.489-2.279-6.731c-0.045-0.131-0.17-0.234-0.256-0.35c0.896-0.878,1.766-1.788,2.699-2.625
			c0.828-0.744,1.496-1.542,1.525-2.719c0.002-0.049,0.027-0.097,0.066-0.234l0.236,0.595c-0.006,0.301-0.031,0.602-0.014,0.902
			c0.035,0.52,0.119,1.038,0.143,1.559c0.043,0.969,0.064,1.939,0.084,2.91c0.031,1.562,0.061,3.123,0.08,4.685
			c0.031,2.495,0.051,4.991,0.082,7.486C913.776,24.586,913.817,24.977,913.841,25.368L913.841,25.368z"/>
		<path fill="#A9AA88" d="M912.737,53.464c0.121-0.599,0.277-1.193,0.352-1.798c0.148-1.207,0.25-2.419,0.371-3.629l0.031-0.004
			l0.029,0.005c0.035,1.519,0.24,3.013,0.635,4.481c-0.08,0.105-0.193,0.2-0.236,0.32c-0.33,0.933-0.643,1.875-0.975,2.809
			c-0.047,0.127-0.174,0.226-0.262,0.339l-0.342-1.169L912.737,53.464L912.737,53.464z"/>
		<path fill="#B6B598" d="M912.683,55.986c0.09-0.112,0.217-0.211,0.262-0.339c0.332-0.934,0.645-1.874,0.977-2.809
			c0.041-0.119,0.154-0.213,0.234-0.319l0.572,1.254c-0.113,0.161-0.27,0.305-0.332,0.484l-1.094,3.215
			c-0.045,0.129-0.199,0.22-0.303,0.329L912.683,55.986L912.683,55.986z"/>
		<path fill="#C2C1A7" d="M912.999,57.801c0.104-0.108,0.258-0.2,0.303-0.329l1.094-3.215c0.063-0.178,0.219-0.323,0.332-0.483
			l0.553,0.472c-0.268,0.264-0.416,0.569-0.326,0.955l-0.168,0.55c-0.076,0.094-0.188,0.176-0.225,0.285
			c-0.383,1.094-0.748,2.195-1.133,3.29c-0.049,0.139-0.184,0.248-0.279,0.37C913.101,59.063,913.05,58.432,912.999,57.801
			L912.999,57.801z"/>
		<path fill="#CECDB7" d="M913.149,59.695c0.096-0.123,0.23-0.232,0.281-0.37c0.385-1.095,0.75-2.195,1.131-3.29
			c0.039-0.108,0.148-0.19,0.225-0.285l-0.23,2.525c-0.063,0.072-0.152,0.134-0.182,0.218c-0.262,0.735-0.51,1.476-0.771,2.211
			c-0.055,0.151-0.158,0.286-0.24,0.427c-0.072-0.094-0.201-0.186-0.207-0.284C913.134,60.465,913.149,60.08,913.149,59.695
			L913.149,59.695z"/>
		<path fill="#DBDAC7" d="M913.362,61.132c0.082-0.142,0.186-0.276,0.24-0.427c0.262-0.735,0.51-1.475,0.771-2.211
			c0.029-0.083,0.119-0.146,0.18-0.218l0.006,1.658l-0.555,1.423L913.362,61.132L913.362,61.132z"/>
		<path fill="#EBE9DC" d="M914.005,61.358l0.555-1.423l0.115,1.684L914.005,61.358z"/>
		<path fill="#CECDB7" d="M914.954,55.201c-0.09-0.385,0.059-0.691,0.326-0.955l0.154,0.104L914.954,55.201z"/>
		<path fill="#4FAA41" d="M913.521,48.038l-0.029-0.005l-0.031,0.004l0.07-0.255L913.521,48.038L913.521,48.038z"/>
	</g>
	<g>
		<path d="M656.284,113.887c0.35-2.893,0.244-3.316,2.398-2.848l0.547,0.047c1.656,0.076,3.822-0.266,5.096-0.857
			c2.742-1.271,4.367-3.395,1.664-2.838c-6.164,1.272-6.588-0.814-6.588-0.814c6.51-9.657,9.23-21.916,6.881-24.918
			c-6.406-8.184-17.492-4.314-17.678-4.214l-0.061,0.011c-1.217-0.252-2.58-0.403-4.111-0.428c-2.789-0.047-4.906,0.73-6.512,1.948
			c0,0-19.781-8.149-18.861,10.249c0.197,3.913,5.611,29.615,12.068,21.852c2.361-2.839,4.641-5.238,4.641-5.238
			c1.133,0.752,2.49,1.136,3.912,0.998l0.109-0.094c-0.035,0.352-0.02,0.697,0.045,1.104c-1.664,1.859-1.176,2.186-4.502,2.87
			c-3.365,0.693-1.387,1.928-0.098,2.25c1.566,0.392,5.186,0.946,7.631-2.479l-0.096,0.391c0.652,0.523,0.607,3.754,0.699,6.061
			c0.094,2.309,0.248,4.463,0.719,5.732s1.025,4.54,5.396,3.604C653.237,125.494,656.03,124.368,656.284,113.887"/>
		<path d="M648.161,128.559c-1.934,0-3.191-0.748-3.955-1.469c-1.156-1.09-1.613-2.492-1.887-3.33l-0.117-0.35
			c-0.551-1.487-0.738-3.627-0.85-6.384c-0.018-0.414-0.027-0.84-0.041-1.292c-0.01-0.33-0.021-0.746-0.037-1.18
			c-0.688,0.328-1.422,0.563-2.197,0.694c-1.363,0.233-2.828,0.157-4.355-0.225c-1.078-0.269-2.199-0.828-2.836-1.69
			c-1.861,1.629-3.637,1.408-4.602,1.086c-1.707-0.569-3.232-2.168-4.668-4.887c-1.021-1.937-2.01-4.459-2.938-7.5
			c-1.617-5.294-2.643-10.871-2.734-12.702c-0.287-5.73,1.256-9.829,4.584-12.18c5.252-3.709,13.207-1.528,16.107-0.538
			c1.947-1.174,4.24-1.746,6.832-1.704c1.391,0.022,2.717,0.145,3.947,0.364c1.283-0.404,3.818-0.983,6.721-0.947
			c5.35,0.064,9.781,2.148,12.816,6.027c2.166,2.768,1.094,8.58,0.264,11.798c-1.17,4.526-3.219,9.342-5.736,13.533
			c0.684,0.005,1.674-0.077,3.082-0.368c2.777-0.573,3.59,0.916,3.811,1.582c0.883,2.676-2.955,4.697-4.154,5.253
			c-1.533,0.712-4.035,1.146-6.084,1.052l-0.09-0.006l-0.537-0.047l-0.055,0.449l-0.051,0.438
			c-0.137,5.312-0.896,8.676-2.457,10.898c-1.637,2.329-3.912,2.983-5.916,3.413C649.345,128.495,648.726,128.559,648.161,128.559
			L648.161,128.559z M644.093,109.227c1.248,0.998,1.357,2.878,1.455,6.389c0.014,0.439,0.025,0.854,0.039,1.241
			c0.047,1.173,0.158,3.92,0.588,5.081c0.061,0.164,0.115,0.33,0.174,0.508c0.479,1.467,0.719,2.203,2.793,1.761
			c1.738-0.374,2.635-0.708,3.334-1.706c1.018-1.449,1.588-4.363,1.691-8.664l2.117,0.051l-2.102-0.252l0.061-0.525
			c0.203-1.73,0.348-2.98,1.504-3.809c0.928-0.662,1.986-0.598,2.828-0.447c-0.926-0.699-1.182-1.52-1.25-1.855l-0.176-0.869
			l0.496-0.737c2.859-4.24,5.215-9.452,6.467-14.3c1.287-4.98,0.895-7.626,0.502-8.127c-5.191-6.634-14.195-3.895-15.137-3.584
			l-0.158,0.086l-0.797,0.148l-0.408-0.084c-1.125-0.234-2.375-0.363-3.715-0.385c-2.105-0.035-3.805,0.461-5.197,1.519
			l-0.967,0.732l-1.121-0.462c-2.395-0.979-9.432-2.949-13.146-0.319c-2.061,1.46-2.998,4.321-2.791,8.503
			c0.07,1.381,1.008,6.607,2.555,11.678c2.139,7.004,4.082,9.332,4.895,9.603c0.143,0.048,0.51-0.237,0.875-0.677
			c2.377-2.86,4.639-5.244,4.734-5.344l1.227-1.29l1.482,0.984c0.596,0.397,1.256,0.623,1.934,0.665l3.535-3.016l-0.512,5.228
			c-0.012,0.118-0.018,0.277,0.027,0.573l0.154,0.991l-0.668,0.747l-0.076,0.087l1.941,0.896L644.093,109.227L644.093,109.227z"/>
		<path fill="#336791" d="M665.989,107.391c-6.164,1.272-6.588-0.814-6.588-0.814c6.51-9.658,9.23-21.918,6.883-24.918
			c-6.406-8.184-17.496-4.313-17.68-4.213l-0.061,0.011c-1.217-0.253-2.58-0.403-4.113-0.429c-2.789-0.045-4.904,0.732-6.51,1.949
			c0,0-19.781-8.148-18.861,10.248c0.195,3.914,5.609,29.615,12.066,21.854c2.361-2.84,4.643-5.24,4.643-5.24
			c1.133,0.753,2.488,1.137,3.91,0.999l0.109-0.094c-0.033,0.353-0.018,0.696,0.045,1.105c-1.664,1.858-1.176,2.185-4.502,2.869
			c-3.365,0.694-1.387,1.929-0.096,2.251c1.564,0.391,5.184,0.945,7.629-2.479l-0.098,0.391c0.652,0.522,1.111,3.396,1.033,6.001
			c-0.076,2.606-0.127,4.395,0.387,5.792c0.514,1.396,1.025,4.539,5.396,3.604c3.652-0.783,5.547-2.812,5.811-6.196
			c0.186-2.405,0.609-2.05,0.637-4.2l0.34-1.019c0.391-3.261,0.061-4.313,2.313-3.823l0.547,0.047
			c1.656,0.075,3.824-0.266,5.096-0.857C667.067,108.957,668.692,106.834,665.989,107.391z"/>
		<path fill="#FFFFFF" d="M648.382,127.253c-3.645,0-4.799-2.886-5.27-4.065c-0.693-1.729-0.842-8.441-0.688-13.946
			c0.012-0.39,0.334-0.698,0.727-0.687c0.389,0.012,0.697,0.336,0.686,0.727c-0.178,6.349,0.074,12.102,0.586,13.382
			c0.799,1.995,2.01,3.741,5.434,3.009c3.252-0.697,4.469-1.931,5.01-5.074c0.416-2.412,1.24-9.274,1.342-10.628
			c0.029-0.39,0.367-0.683,0.756-0.652c0.389,0.029,0.682,0.368,0.652,0.757c-0.105,1.41-0.924,8.26-1.357,10.765
			c-0.639,3.712-2.295,5.396-6.105,6.214C649.505,127.191,648.917,127.253,648.382,127.253L648.382,127.253z M628.622,113.158
			c-0.348,0-0.662-0.064-0.936-0.155c-2.367-0.79-4.623-4.645-6.701-11.458c-1.584-5.188-2.586-10.602-2.674-12.361
			c-0.262-5.217,1.082-8.907,3.992-10.969c5.758-4.08,15.443-0.195,15.854-0.027c0.361,0.146,0.535,0.56,0.387,0.921
			c-0.148,0.36-0.561,0.534-0.922,0.387c-0.092-0.038-9.381-3.759-14.506-0.126c-2.488,1.765-3.631,5.043-3.395,9.744
			c0.072,1.482,1.01,6.766,2.613,12.018c1.857,6.084,3.971,9.923,5.797,10.532c0.287,0.096,1.16,0.386,2.408-1.114
			c2.35-2.825,4.506-5.08,4.527-5.103c0.27-0.281,0.717-0.29,1-0.021c0.281,0.27,0.291,0.717,0.02,0.998
			c-0.02,0.021-2.145,2.243-4.461,5.028C630.53,112.771,629.479,113.158,628.622,113.158z M659.358,107.206
			c-0.137,0-0.273-0.039-0.395-0.12c-0.324-0.219-0.41-0.657-0.191-0.98c6.58-9.764,8.889-21.561,6.912-24.088
			c-2.49-3.182-6.006-4.844-10.449-4.939c-3.291-0.07-5.906,0.77-6.334,0.916l-0.107,0.044c-0.43,0.135-0.76-0.101-0.885-0.376
			c-0.146-0.326-0.025-0.711,0.279-0.896c0.021-0.012,0.086-0.039,0.191-0.078l-0.01,0.003l0.01-0.003
			c0.727-0.267,3.381-1.063,6.67-1.025c4.916,0.053,8.979,1.949,11.746,5.484c1.309,1.673,1.311,5.527,0.008,10.574
			c-1.328,5.146-3.83,10.677-6.859,15.174C659.808,107.097,659.585,107.206,659.358,107.206L659.358,107.206z M659.694,111.727
			c-1.123,0-2.131-0.159-2.734-0.521c-0.619-0.371-0.736-0.876-0.752-1.144c-0.17-2.971,1.469-3.488,2.305-3.724
			c-0.117-0.177-0.281-0.384-0.453-0.597c-0.486-0.609-1.154-1.443-1.67-2.691c-0.08-0.194-0.332-0.647-0.625-1.172
			c-1.584-2.842-4.881-8.754-2.764-11.781c0.98-1.4,2.932-1.952,5.809-1.645c-0.846-2.578-4.875-10.64-14.434-10.797
			c-2.875-0.047-5.232,0.836-7.004,2.626c-3.967,4.005-3.822,11.253-3.82,11.326c0.01,0.39-0.299,0.715-0.688,0.725
			c-0.391,0.013-0.715-0.298-0.725-0.688c-0.01-0.321-0.158-7.928,4.229-12.358c2.053-2.072,4.756-3.096,8.031-3.042
			c6.115,0.101,10.051,3.209,12.277,5.8c2.424,2.822,3.613,5.937,3.711,6.976c0.074,0.772-0.48,0.927-0.594,0.95l-0.254,0.006
			c-2.822-0.451-4.633-0.138-5.381,0.932c-1.611,2.303,1.508,7.895,2.838,10.283c0.342,0.609,0.586,1.049,0.699,1.321
			c0.438,1.061,1.008,1.772,1.465,2.346c0.404,0.505,0.754,0.941,0.879,1.454c0.057,0.102,0.881,1.318,5.764,0.311
			c1.223-0.252,1.957-0.036,2.182,0.643c0.441,1.334-2.035,2.891-3.406,3.527C663.351,111.365,661.392,111.727,659.694,111.727
			L659.694,111.727z M657.616,109.945c0.154,0.156,0.93,0.426,2.535,0.357c1.426-0.061,2.932-0.371,3.836-0.791
			c1.154-0.536,1.926-1.137,2.324-1.545l-0.221,0.041c-3.123,0.644-5.332,0.559-6.564-0.256c-0.088-0.059-0.168-0.119-0.238-0.178
			c-0.135,0.053-0.258,0.087-0.346,0.111C658.241,107.883,657.519,108.086,657.616,109.945L657.616,109.945z M637.446,113.893
			c-0.775,0-1.592-0.106-2.426-0.314c-0.863-0.217-2.32-0.867-2.297-1.935c0.025-1.198,1.768-1.558,2.424-1.692
			c2.369-0.489,2.523-0.685,3.266-1.625c0.215-0.273,0.484-0.615,0.85-1.024c0.545-0.609,1.139-0.918,1.768-0.918
			c0.438,0,0.797,0.148,1.035,0.247c0.756,0.313,1.387,1.071,1.645,1.978c0.234,0.817,0.123,1.604-0.313,2.216
			C641.964,112.831,639.905,113.893,637.446,113.893z M634.249,111.704c0.213,0.165,0.639,0.384,1.115,0.503
			c0.721,0.182,1.422,0.273,2.082,0.273c2.012,0,3.627-0.834,4.801-2.477c0.246-0.344,0.172-0.778,0.107-1.007
			c-0.137-0.479-0.479-0.916-0.83-1.062c-0.189-0.078-0.348-0.139-0.494-0.139c-0.076,0-0.314,0-0.713,0.446
			c-0.338,0.377-0.58,0.685-0.795,0.957c-0.922,1.171-1.346,1.569-4.09,2.135C634.763,111.472,634.419,111.611,634.249,111.704
			L634.249,111.704z M639.681,108.446c-0.344,0-0.645-0.251-0.697-0.6c-0.018-0.118-0.029-0.235-0.035-0.354
			c-1.801-0.034-3.535-0.806-4.854-2.181c-1.666-1.738-2.424-4.146-2.08-6.608c0.373-2.673,0.234-5.031,0.158-6.299
			c-0.02-0.353-0.035-0.606-0.035-0.783c0.002-0.224,0.006-0.816,1.988-1.82c0.705-0.357,2.117-0.981,3.662-1.141
			c2.557-0.265,4.242,0.875,4.748,3.208c1.361,6.299,0.107,9.084-0.809,11.119c-0.172,0.379-0.332,0.736-0.461,1.082l-0.113,0.307
			c-0.484,1.297-0.902,2.418-0.775,3.255c0.061,0.386-0.205,0.746-0.59,0.806L639.681,108.446L639.681,108.446z M633.556,91.818
			l0.027,0.504c0.078,1.316,0.223,3.766-0.17,6.578c-0.283,2.029,0.336,4.011,1.701,5.435c1.078,1.125,2.498,1.747,3.957,1.747
			h0.031c0.162-0.689,0.434-1.416,0.727-2.199l0.113-0.304c0.145-0.392,0.316-0.771,0.496-1.171
			c0.881-1.959,1.979-4.396,0.715-10.24c-0.25-1.158-0.857-1.828-1.854-2.049C637.251,89.667,634.196,91.208,633.556,91.818
			L633.556,91.818z M637.819,91.518c-0.037,0.25,0.457,0.917,1.1,1.006c0.641,0.09,1.189-0.432,1.225-0.682
			c0.035-0.249-0.457-0.525-1.1-0.614S637.853,91.269,637.819,91.518z M639.065,92.77l-0.18-0.013
			c-0.398-0.056-0.801-0.307-1.076-0.672c-0.098-0.128-0.256-0.378-0.225-0.6c0.045-0.325,0.443-0.521,1.063-0.521
			c0.139,0,0.283,0.01,0.428,0.029c0.34,0.048,0.654,0.146,0.887,0.275c0.402,0.225,0.434,0.476,0.414,0.605
			C640.327,92.234,639.755,92.77,639.065,92.77z M638.054,91.561c0.02,0.153,0.4,0.662,0.896,0.73l0.117,0.008
			c0.457,0,0.801-0.361,0.842-0.479c-0.043-0.082-0.338-0.281-0.898-0.359c-0.123-0.018-0.246-0.025-0.363-0.025
			C638.288,91.436,638.099,91.516,638.054,91.561z M657.356,91.008c0.035,0.25-0.457,0.918-1.1,1.007s-1.191-0.432-1.227-0.682
			c-0.035-0.249,0.459-0.525,1.1-0.614C656.772,90.629,657.321,90.76,657.356,91.008L657.356,91.008z M656.108,92.143
			c-0.619,0-1.152-0.481-1.195-0.793c-0.051-0.375,0.566-0.66,1.199-0.748c0.141-0.02,0.279-0.029,0.412-0.029
			c0.549,0,0.912,0.161,0.949,0.42c0.021,0.168-0.107,0.428-0.328,0.66c-0.146,0.154-0.455,0.42-0.873,0.479L656.108,92.143z
			 M656.526,90.809c-0.123,0-0.25,0.009-0.379,0.026c-0.639,0.089-1.02,0.345-1.002,0.481c0.021,0.152,0.43,0.59,0.963,0.59
			l0.131-0.009c0.35-0.048,0.611-0.276,0.736-0.407c0.195-0.205,0.273-0.399,0.264-0.465
			C657.228,90.938,656.991,90.809,656.526,90.809L656.526,90.809z M658.28,105.348c-0.135,0-0.271-0.039-0.391-0.119
			c-0.326-0.217-0.412-0.656-0.195-0.98c1.504-2.246,1.229-4.537,0.963-6.753c-0.113-0.944-0.23-1.921-0.199-2.856
			c0.029-0.964,0.152-1.76,0.271-2.527c0.139-0.912,0.271-1.772,0.217-2.794c-0.02-0.39,0.279-0.722,0.668-0.743
			c0.391-0.021,0.723,0.277,0.744,0.666c0.063,1.168-0.088,2.143-0.232,3.085c-0.113,0.728-0.229,1.479-0.258,2.358
			c-0.025,0.83,0.08,1.711,0.191,2.643c0.283,2.355,0.605,5.026-1.191,7.708C658.733,105.236,658.509,105.348,658.28,105.348
			L658.28,105.348z"/>
		<path fill="none" stroke="#FFFFFF" stroke-width="3" stroke-linecap="round" stroke-linejoin="round" d="M616.677,81.534"/>
	</g>
	<g>
		<path fill="#3A4D54" d="M918.758,365.526h5.76v5.861h2.904c1.326,0,2.703-0.255,3.977-0.662c0.611-0.204,1.324-0.51,1.936-0.866
			c-0.814-1.071-1.223-2.396-1.324-3.722c-0.152-1.783,0.203-4.128,1.428-5.504l0.611-0.714l0.713,0.561
			c1.836,1.479,3.313,3.466,3.619,5.811c2.191-0.663,4.74-0.51,6.676,0.611l0.766,0.459l-0.408,0.815
			c-1.631,3.16-5.045,4.18-8.359,3.976c-4.994,12.385-15.799,18.247-28.949,18.247c-6.779,0-12.996-2.549-16.564-8.563l-0.051-0.103
			l-0.51-1.07c-1.223-2.65-1.58-5.556-1.326-8.461l0.104-0.866h4.893v-5.811h5.76v-5.708h11.467v-5.76h6.881V365.526
			L918.758,365.526z"/>
		<path fill="#00AADA" d="M937.412,367.718c0.408-3.007-1.834-5.352-3.262-6.473c-1.58,1.835-1.834,6.728,0.662,8.767
			c-1.428,1.223-4.332,2.396-7.391,2.396h-36.799c-0.305,3.16,0.256,6.064,1.529,8.563l0.408,0.765
			c0.254,0.459,0.561,0.866,0.867,1.325c1.529,0.102,2.904,0.152,4.178,0.102c2.498-0.051,4.537-0.356,6.117-0.866
			c0.254-0.102,0.459,0.051,0.561,0.256c0.102,0.254-0.051,0.458-0.254,0.56c-0.205,0.051-0.408,0.153-0.664,0.203
			c-1.223,0.357-2.549,0.562-4.23,0.664h-0.305c-0.664,0.05-1.377,0.05-2.141,0.05c-0.816,0-1.58,0-2.498-0.05
			c3.059,3.466,7.85,5.504,13.863,5.504c12.742,0,23.547-5.658,28.287-18.298c3.416,0.356,6.676-0.51,8.154-3.414
			C942.203,366.394,939.145,366.852,937.412,367.718z"/>
		<path fill="#28B8EB" d="M937.412,367.718c0.408-3.007-1.834-5.352-3.262-6.473c-1.58,1.835-1.834,6.728,0.662,8.767
			c-1.428,1.223-4.332,2.396-7.391,2.396h-34.658c-0.152,4.842,1.631,8.512,4.842,10.703c2.498-0.051,4.537-0.356,6.117-0.866
			c0.254-0.102,0.459,0.051,0.561,0.255c0.102,0.255-0.051,0.458-0.254,0.561c-0.205,0.051-0.408,0.152-0.664,0.204
			c-1.223,0.356-2.65,0.611-4.332,0.714l-0.051-0.052c4.332,2.243,10.602,2.191,17.84-0.561c8.053-3.108,15.596-9.021,20.846-15.749
			C937.564,367.667,937.463,367.667,937.412,367.718L937.412,367.718z"/>
		<path fill="#028BB8" d="M890.674,376.23c0.205,1.681,0.715,3.261,1.479,4.739l0.408,0.765c0.254,0.459,0.561,0.866,0.867,1.325
			c1.529,0.102,2.904,0.152,4.178,0.102c2.498-0.051,4.537-0.356,6.117-0.866c0.254-0.102,0.459,0.051,0.561,0.256
			c0.102,0.254-0.051,0.458-0.254,0.56c-0.205,0.051-0.408,0.153-0.664,0.203c-1.223,0.357-2.65,0.612-4.332,0.714h-0.203
			c-0.664,0.052-1.377,0.052-2.09,0.052c-0.816,0-1.631,0-2.498-0.052c3.059,3.467,7.9,5.505,13.914,5.505
			c10.906,0,20.387-4.129,25.893-13.251h-43.375V376.23L890.674,376.23z"/>
		<path fill="#019BC6" d="M893.121,376.23c0.662,2.955,2.191,5.3,4.484,6.88c2.498-0.051,4.537-0.356,6.117-0.866
			c0.254-0.102,0.459,0.051,0.561,0.255c0.102,0.255-0.051,0.458-0.254,0.561c-0.205,0.051-0.408,0.152-0.664,0.204
			c-1.223,0.356-2.65,0.611-4.383,0.714c4.332,2.242,10.602,2.191,17.787-0.561c4.332-1.683,8.564-4.18,12.336-7.187H893.121
			L893.121,376.23z"/>
		<path fill="#00ACD3" d="M895.619,366.495h4.994v4.994h-4.994V366.495L895.619,366.495z M896.025,366.902h0.408v4.129h-0.408
			V366.902z M896.74,366.902h0.406v4.129h-0.406V366.902z M897.504,366.902h0.408v4.129h-0.408V366.902z M898.27,366.902h0.408
			v4.129h-0.408V366.902z M899.033,366.902h0.408v4.129h-0.408V366.902z M899.797,366.902h0.408v4.129h-0.408V366.902z
			 M901.326,360.786h4.996v4.995h-4.996V360.786z M901.785,361.194h0.408v4.128h-0.408V361.194L901.785,361.194z M902.5,361.194
			h0.406v4.128H902.5V361.194L902.5,361.194z M903.264,361.194h0.408v4.128h-0.408V361.194L903.264,361.194z M904.029,361.194h0.406
			v4.128h-0.406V361.194L904.029,361.194z M904.742,361.194h0.406v4.128h-0.406V361.194L904.742,361.194z M905.506,361.194h0.408
			v4.128h-0.408V361.194L905.506,361.194z"/>
		<path fill="#23C2EE" d="M901.326,366.495h4.996v4.994h-4.996V366.495z M901.785,366.902h0.408v4.129h-0.408V366.902z
			 M902.5,366.902h0.406v4.129H902.5V366.902z M903.264,366.902h0.408v4.129h-0.408V366.902z M904.029,366.902h0.406v4.129h-0.406
			V366.902z M904.742,366.902h0.406v4.129h-0.406V366.902z M905.506,366.902h0.408v4.129h-0.408V366.902z"/>
		<path fill="#00ACD3" d="M907.086,366.495h4.996v4.994h-4.996V366.495z M907.494,366.902h0.408v4.129h-0.408V366.902z
			 M908.258,366.902h0.408v4.129h-0.408V366.902z M909.023,366.902h0.408v4.129h-0.408V366.902z M909.736,366.902h0.408v4.129
			h-0.408V366.902z M910.502,366.902h0.408v4.129h-0.408V366.902z M911.266,366.902h0.408v4.129h-0.408V366.902z"/>
		<path fill="#23C2EE" d="M907.086,360.786h4.996v4.995h-4.996V360.786z M907.494,361.194h0.408v4.128h-0.408V361.194
			L907.494,361.194z M908.258,361.194h0.408v4.128h-0.408V361.194L908.258,361.194z M909.023,361.194h0.408v4.128h-0.408V361.194
			L909.023,361.194z M909.736,361.194h0.408v4.128h-0.408V361.194L909.736,361.194z M910.502,361.194h0.408v4.128h-0.408V361.194
			L910.502,361.194z M911.266,361.194h0.408v4.128h-0.408V361.194L911.266,361.194z M912.846,366.495h4.994v4.994h-4.994V366.495z
			 M913.254,366.902h0.408v4.129h-0.408V366.902z M914.018,366.902h0.408v4.129h-0.408V366.902z M914.732,366.902h0.406v4.129
			h-0.406V366.902z M915.496,366.902h0.408v4.129h-0.408V366.902z M916.262,366.902h0.406v4.129h-0.406V366.902z M917.025,366.902
			h0.408v4.129h-0.408V366.902z"/>
		<path fill="#00ACD3" d="M912.846,360.786h4.994v4.995h-4.994V360.786z M913.254,361.194h0.408v4.128h-0.408V361.194
			L913.254,361.194z M914.018,361.194h0.408v4.128h-0.408V361.194L914.018,361.194z M914.732,361.194h0.406v4.128h-0.406V361.194
			L914.732,361.194z M915.496,361.194h0.408v4.128h-0.408V361.194L915.496,361.194z M916.262,361.194h0.406v4.128h-0.406V361.194
			L916.262,361.194z M917.025,361.194h0.408v4.128h-0.408V361.194L917.025,361.194z"/>
		<path fill="#23C2EE" d="M912.846,355.027h4.994v4.995h-4.994V355.027z M913.254,355.435h0.408v4.129h-0.408V355.435z
			 M914.018,355.435h0.408v4.129h-0.408V355.435z M914.732,355.435h0.406v4.129h-0.406V355.435z M915.496,355.435h0.408v4.129
			h-0.408V355.435z M916.262,355.435h0.406v4.129h-0.406V355.435z M917.025,355.435h0.408v4.129h-0.408V355.435z"/>
		<path fill="#00ACD3" d="M918.605,366.495h4.994v4.994h-4.994V366.495z M919.014,366.902h0.406v4.129h-0.406V366.902z
			 M919.727,366.902h0.408v4.129h-0.408V366.902z M920.49,366.902h0.408v4.129h-0.408V366.902z M921.256,366.902h0.406v4.129h-0.406
			V366.902z M922.021,366.902h0.406v4.129h-0.406V366.902z M922.785,366.902h0.408v4.129h-0.408V366.902z"/>
		<path fill="#D4EEF1" d="M906.016,379.543c0.766,0,1.377,0.611,1.377,1.376s-0.611,1.376-1.377,1.376
			c-0.764,0-1.375-0.611-1.375-1.376S905.252,379.543,906.016,379.543"/>
		<path fill="#3A4D54" d="M906.016,379.951c0.102,0,0.256,0,0.357,0.051c-0.102,0.051-0.203,0.203-0.203,0.356
			c0,0.203,0.203,0.407,0.406,0.407c0.152,0,0.307-0.102,0.357-0.204c0.051,0.103,0.051,0.256,0.051,0.357
			c0,0.561-0.459,0.969-0.969,0.969c-0.561,0-0.969-0.459-0.969-0.969S905.455,379.951,906.016,379.951 M881.705,376.739h63.912
			c-1.375-0.356-4.383-0.815-3.924-2.65c-2.549,2.905-8.613,2.039-10.193,0.611c-1.732,2.498-11.723,1.53-12.385-0.407
			c-2.141,2.548-8.818,2.548-10.959,0c-0.713,1.938-10.703,2.905-12.385,0.407c-1.529,1.428-7.646,2.294-10.193-0.611
			C886.139,375.873,883.08,376.383,881.705,376.739"/>
		<path fill="#BFDBE0" d="M909.686,389.481c-3.414-1.631-5.25-3.822-6.32-6.218c-1.273,0.356-2.803,0.611-4.535,0.714
			c-0.664,0.05-1.377,0.05-2.09,0.05c-0.867,0-1.732,0-2.65-0.05c3.057,3.058,6.932,5.453,14.016,5.504H909.686L909.686,389.481z"/>
		<path fill="#D4EEF1" d="M904.641,385.455c-0.459-0.663-0.918-1.428-1.275-2.191c-1.273,0.356-2.803,0.611-4.535,0.714
			C900.002,384.588,901.734,385.2,904.641,385.455z"/>
	</g>
	<g>
		<path fill="#B3B3B3" d="M845.936,414.996l-26.23,9.23l4.145,34.367l22.115,12.154l22.228-12.318l4.143-34.367L845.936,414.996z"/>
		<path fill="#A6120D" d="M869.719,426.049l-23.844-8.131v49.926l19.982-11.059L869.719,426.049z"/>
		<path fill="#DD1B16" d="M822.647,426.195l3.553,30.736l19.675,10.912v-49.927L822.647,426.195z"/>
		<path fill="#F2F2F2" d="M852.438,444.496l-6.563,3.07h-6.918l-3.253,8.133l-6.047,0.112l16.218-36.081L852.438,444.496
			L852.438,444.496z M851.804,442.951l-5.886-11.652l-4.827,11.451h4.784L851.804,442.951z"/>
		<path fill="#B3B3B3" d="M845.875,419.73l0.043,11.568l5.478,11.461h-5.51l-0.011,4.799l7.617,0.008l3.561,8.246l5.787,0.107
			L845.875,419.73z"/>
	</g>
	<g>
		<path fill="#5B4282" d="M715.101,169.177c-0.857-0.282-2.092-0.222-3.703-0.222h-6.476v8.452h6.925
			c1.082,0,1.842-0.116,2.279-0.196c0.771-0.139,1.416-0.406,1.934-0.729c0.519-0.322,0.944-0.811,1.279-1.426
			c0.334-0.617,0.5-1.338,0.5-2.143c0-0.943-0.241-1.669-0.726-2.365C716.63,169.852,715.959,169.459,715.101,169.177z
			 M714.213,165.313c0.851-0.253,1.493-0.694,1.925-1.281c0.432-0.588,0.647-1.335,0.647-2.222c0-0.841-0.202-1.585-0.604-2.225
			s-0.979-0.887-1.727-1.123c-0.749-0.235-2.032-0.163-3.852-0.163h-5.681v7.35h6.095
			C712.503,165.648,713.567,165.508,714.213,165.313z M733.585,151.914c0-3.375-2.735-6.11-6.109-6.11H693.76
			c-3.374,0-6.109,2.735-6.109,6.11v33.715c0,3.375,2.735,6.109,6.109,6.109h33.716c3.374,0,6.109-2.734,6.109-6.109V151.914z
			 M720.56,176.211c-0.501,1.02-1.12,1.805-1.856,2.357c-0.737,0.553-1.661,1.021-2.772,1.304s-2.473,0.476-4.084,0.476h-10.232
			V154.99h10.076c1.936,0,3.485,0.225,4.654,0.736c1.17,0.513,2.084,1.285,2.747,2.35c0.661,1.065,0.992,2.171,0.992,3.334
			c0,1.082-0.294,2.098-0.881,3.053c-0.587,0.956-1.474,1.725-2.659,2.313c1.531,0.449,2.708,1.215,3.531,2.296
			c0.824,1.082,1.235,2.36,1.235,3.833C721.311,174.09,721.06,175.193,720.56,176.211L720.56,176.211z"/>
	</g>
	<g>
		<path fill="#FFFFFF" d="M816.107,101.42c0,4.508,4.403,8.717,11.344,11.09c-1.386,6.978-0.247,12.602,3.553,14.793
			c3.905,2.252,9.724,0.693,15.246-4.135c5.385,4.633,10.825,6.457,14.623,4.258c3.901-2.259,5.087-8.264,3.662-15.459
			c7.231-2.391,11.274-5.98,11.274-10.547c0-4.405-4.41-8.214-11.258-10.572c1.533-7.493,0.233-12.98-3.722-15.262
			c-3.816-2.2-9.32-0.282-14.784,4.472c-5.683-5.047-11.132-6.587-15.085-4.298c-3.813,2.207-4.899,7.933-3.51,15.041
			C820.744,93.136,816.107,97.033,816.107,101.42z"/>
		<path fill="#53C1DE" d="M863.102,93.19c-0.564-0.193-1.133-0.374-1.708-0.539c0.096-0.386,0.185-0.774,0.265-1.164
			c1.292-6.271,0.448-11.324-2.438-12.987c-2.767-1.597-7.289,0.068-11.858,4.043c-0.45,0.392-0.89,0.796-1.319,1.212
			c-0.287-0.277-0.58-0.547-0.879-0.812c-4.789-4.252-9.587-6.043-12.47-4.374c-2.763,1.599-3.581,6.349-2.417,12.292
			c0.114,0.588,0.246,1.174,0.391,1.756c-0.679,0.192-1.334,0.397-1.962,0.617c-5.614,1.958-9.199,5.024-9.199,8.206
			c0,3.286,3.849,6.582,9.696,8.58c0.474,0.161,0.951,0.31,1.434,0.447c-0.157,0.627-0.295,1.259-0.418,1.894
			c-1.106,5.841-0.241,10.479,2.515,12.068c2.848,1.641,7.624-0.045,12.276-4.113c0.367-0.321,0.737-0.662,1.105-1.02
			c0.466,0.45,0.943,0.887,1.435,1.309c4.505,3.876,8.956,5.443,11.71,3.85c2.844-1.646,3.769-6.628,2.566-12.69
			c-0.091-0.462-0.197-0.936-0.316-1.418c0.336-0.098,0.664-0.2,0.986-0.308c6.077-2.013,10.032-5.269,10.032-8.599
			C872.528,98.248,868.827,95.16,863.102,93.19L863.102,93.19z"/>
		<path fill="#FFFFFF" d="M861.783,107.891c-0.29,0.097-0.588,0.189-0.891,0.279c-0.67-2.124-1.576-4.383-2.686-6.717
			c1.059-2.279,1.93-4.508,2.581-6.619c0.541,0.157,1.068,0.323,1.576,0.497c4.907,1.689,7.898,4.187,7.898,6.111
			C870.263,103.491,867.031,106.152,861.783,107.891L861.783,107.891z M859.605,112.207c0.531,2.68,0.606,5.104,0.254,6.999
			c-0.314,1.701-0.95,2.835-1.734,3.291c-1.671,0.966-5.245-0.29-9.099-3.606c-0.44-0.38-0.887-0.786-1.333-1.215
			c1.494-1.635,2.987-3.534,4.445-5.644c2.563-0.229,4.983-0.6,7.181-1.107C859.427,111.36,859.523,111.788,859.605,112.207
			L859.605,112.207z M837.583,122.328c-1.632,0.578-2.933,0.594-3.717,0.14c-1.675-0.963-2.369-4.687-1.42-9.683
			c0.112-0.59,0.241-1.177,0.387-1.759c2.171,0.48,4.575,0.825,7.145,1.034c1.468,2.064,3.003,3.961,4.553,5.624
			c-0.331,0.318-0.667,0.629-1.011,0.93C841.462,120.412,839.399,121.687,837.583,122.328L837.583,122.328z M829.936,107.878
			c-2.585-0.883-4.721-2.032-6.184-3.285c-1.315-1.126-1.979-2.244-1.979-3.151c0-1.931,2.878-4.394,7.68-6.067
			c0.604-0.209,1.211-0.402,1.824-0.575c0.663,2.16,1.533,4.416,2.584,6.697c-1.063,2.315-1.945,4.608-2.616,6.792
			C830.805,108.162,830.368,108.026,829.936,107.878z M832.5,90.427c-0.996-5.093-0.335-8.933,1.33-9.898
			c1.773-1.026,5.696,0.438,9.829,4.108c0.267,0.235,0.529,0.481,0.796,0.735c-1.54,1.654-3.062,3.537-4.516,5.589
			c-2.493,0.232-4.882,0.604-7.076,1.101C832.729,91.52,832.607,90.976,832.5,90.427L832.5,90.427z M855.37,96.075
			c-0.518-0.896-1.055-1.779-1.612-2.652c1.691,0.213,3.313,0.498,4.834,0.846c-0.456,1.463-1.026,2.995-1.696,4.565
			C856.406,97.904,855.896,96.985,855.37,96.075L855.37,96.075z M846.043,86.992c1.046,1.131,2.091,2.395,3.12,3.765
			c-2.088-0.098-4.179-0.098-6.267-0.001C843.928,89.398,844.981,88.135,846.043,86.992z M836.657,96.09
			c-0.521,0.903-1.021,1.817-1.497,2.743c-0.66-1.564-1.225-3.103-1.685-4.587c1.513-0.34,3.126-0.616,4.806-0.827
			C837.72,94.296,837.177,95.187,836.657,96.09z M838.33,109.625c-1.736-0.193-3.373-0.456-4.886-0.786
			c0.468-1.51,1.045-3.083,1.719-4.68c0.479,0.926,0.98,1.841,1.503,2.744C837.198,107.823,837.755,108.732,838.33,109.625z
			 M846.106,116.053c-1.074-1.159-2.145-2.44-3.19-3.818c1.015,0.039,2.05,0.061,3.103,0.061c1.081,0,2.149-0.024,3.2-0.073
			C848.187,113.627,847.144,114.91,846.106,116.053z M856.917,104.079c0.709,1.615,1.306,3.178,1.78,4.664
			c-1.537,0.349-3.197,0.633-4.946,0.842c0.562-0.888,1.104-1.789,1.628-2.698C855.913,105.962,856.425,105.026,856.917,104.079
			L856.917,104.079z M853.418,105.755c-0.804,1.396-1.653,2.764-2.546,4.105c-1.571,0.112-3.197,0.169-4.854,0.169
			c-1.649,0-3.256-0.051-4.801-0.152c-0.915-1.335-1.78-2.708-2.592-4.109c-0.807-1.396-1.562-2.821-2.262-4.273
			c0.697-1.453,1.45-2.878,2.256-4.274v0.001c0.804-1.396,1.661-2.763,2.569-4.093c1.578-0.12,3.195-0.182,4.829-0.182
			c1.641,0,3.261,0.062,4.837,0.183c0.898,1.329,1.75,2.689,2.554,4.079c0.81,1.393,1.569,2.812,2.286,4.254
			C854.987,102.921,854.227,104.353,853.418,105.755L853.418,105.755z M858.09,80.462c1.775,1.024,2.466,5.153,1.351,10.568
			c-0.073,0.352-0.153,0.704-0.239,1.054c-2.198-0.508-4.588-0.884-7.088-1.12c-1.458-2.075-2.968-3.961-4.481-5.594
			c0.396-0.383,0.803-0.757,1.217-1.118C852.765,80.847,856.422,79.501,858.09,80.462L858.09,80.462z"/>
		<path fill="#53C1DE" d="M846.019,96.707c2.615,0,4.734,2.121,4.734,4.735c0,2.614-2.119,4.735-4.734,4.735
			c-2.614,0-4.735-2.122-4.735-4.735C841.283,98.827,843.404,96.707,846.019,96.707"/>
	</g>
	<g>
		<path fill="#00618A" d="M866.738,317.737c-2.676-0.073-4.721,0.176-6.468,0.912c-0.497,0.21-1.29,0.216-1.37,0.838
			c0.272,0.286,0.315,0.714,0.531,1.064c0.418,0.675,1.123,1.581,1.751,2.056c0.688,0.519,1.396,1.073,2.132,1.521
			c1.31,0.799,2.771,1.255,4.033,2.055c0.743,0.473,1.481,1.066,2.207,1.599c0.358,0.263,0.6,0.672,1.064,0.837v-0.076
			c-0.244-0.312-0.308-0.739-0.532-1.065l-0.989-0.989c-0.968-1.284-2.195-2.412-3.502-3.349c-1.041-0.747-3.369-1.757-3.805-2.968
			l-0.075-0.076c0.737-0.084,1.602-0.351,2.283-0.533c1.144-0.307,2.167-0.228,3.349-0.532l1.598-0.457v-0.304
			c-0.598-0.613-1.023-1.424-1.674-1.979c-1.705-1.451-3.564-2.901-5.479-4.11c-1.063-0.67-2.375-1.105-3.501-1.674
			c-0.379-0.191-1.044-0.291-1.294-0.609c-0.592-0.754-0.913-1.709-1.37-2.587c-0.955-1.84-1.893-3.849-2.738-5.784
			c-0.578-1.32-0.955-2.622-1.676-3.806c-3.455-5.682-7.174-9.11-12.937-12.481c-1.226-0.717-2.702-0.999-4.263-1.369
			c-0.836-0.051-1.674-0.103-2.511-0.152c-0.511-0.214-1.042-0.839-1.522-1.143c-1.908-1.206-6.805-3.828-8.219-0.38
			c-0.893,2.177,1.334,4.3,2.131,5.403c0.559,0.773,1.275,1.641,1.674,2.511c0.264,0.572,0.309,1.146,0.533,1.751
			c0.553,1.491,1.035,3.113,1.75,4.489c0.362,0.698,0.761,1.432,1.219,2.056c0.279,0.382,0.76,0.551,0.836,1.142
			c-0.469,0.657-0.496,1.679-0.76,2.512c-1.189,3.75-0.741,8.411,0.988,11.188c0.531,0.853,1.781,2.68,3.502,1.979
			c1.503-0.612,1.168-2.512,1.598-4.187c0.098-0.379,0.037-0.658,0.229-0.912v0.076l1.369,2.738
			c1.015,1.634,2.813,3.341,4.339,4.491c0.79,0.598,1.413,1.63,2.435,1.979v-0.076h-0.076c-0.197-0.309-0.508-0.437-0.76-0.685
			c-0.596-0.584-1.258-1.31-1.75-1.979c-1.388-1.883-2.613-3.943-3.729-6.088c-0.534-1.024-0.997-2.154-1.446-3.197
			c-0.174-0.401-0.172-1.009-0.533-1.218c-0.492,0.765-1.217,1.382-1.598,2.284c-0.609,1.44-0.688,3.199-0.913,5.022
			c-0.134,0.048-0.074,0.015-0.153,0.076c-1.06-0.256-1.432-1.347-1.826-2.283c-0.996-2.367-1.181-6.179-0.305-8.904
			c0.227-0.706,1.252-2.926,0.838-3.577c-0.198-0.65-0.852-1.026-1.218-1.522c-0.453-0.613-0.904-1.422-1.218-2.132
			c-0.816-1.844-1.197-3.917-2.055-5.783c-0.411-0.892-1.105-1.795-1.674-2.587c-0.631-0.879-1.338-1.525-1.827-2.588
			c-0.174-0.378-0.41-0.982-0.153-1.37c0.082-0.262,0.199-0.371,0.457-0.457c0.441-0.34,1.672,0.114,2.131,0.304
			c1.221,0.508,2.239,0.99,3.273,1.675c0.496,0.33,0.998,0.967,1.598,1.142h0.686c1.07,0.247,2.271,0.077,3.271,0.381
			c1.77,0.538,3.355,1.375,4.795,2.283c4.387,2.771,7.973,6.713,10.426,11.416c0.396,0.758,0.566,1.48,0.914,2.283
			c0.701,1.62,1.584,3.287,2.281,4.871c0.697,1.58,1.376,3.175,2.36,4.49c0.518,0.69,2.517,1.062,3.425,1.446
			c0.637,0.269,1.68,0.55,2.283,0.913c1.152,0.694,2.268,1.521,3.35,2.283C864.996,316.214,866.656,317.05,866.738,317.737
			L866.738,317.737z M832.721,288.741c-0.559-0.011-0.953,0.061-1.37,0.152v0.076h0.075c0.268,0.546,0.737,0.899,1.066,1.37
			c0.253,0.532,0.507,1.064,0.761,1.598l0.075-0.075c0.473-0.333,0.688-0.864,0.686-1.676c-0.189-0.197-0.217-0.446-0.381-0.684
			C833.416,289.187,832.995,289.007,832.721,288.741z"/>
	</g>
</g>
</svg>
